<?xml version='1.0' encoding='utf-8'?>
<svg xmlns:xlink="http://www.w3.org/1999/xlink" class="pygal-chart" height="600" id="chart-ede05a3f-2908-4916-99f4-e920cbd412c8" viewBox="0 0 900 600" width="900" xmlns="http://www.w3.org/2000/svg"><!--Generated with pygal 1.7.0 (etree) ©Kozea 2011-2014 on 2015-09-13--><!--http://pygal.org--><!--http://github.com/Kozea/pygal--><defs><style type="text/css">#chart-ede05a3f-2908-4916-99f4-e920cbd412c8 .title{font-family:"monospace";font-size:16px}#chart-ede05a3f-2908-4916-99f4-e920cbd412c8 .legends .legend text{font-family:"monospace";font-size:14px}#chart-ede05a3f-2908-4916-99f4-e920cbd412c8 .axis text{font-family:"monospace";font-size:10px}#chart-ede05a3f-2908-4916-99f4-e920cbd412c8 .axis text.major{font-family:"monospace";font-size:10px}#chart-ede05a3f-2908-4916-99f4-e920cbd412c8 .series text{font-family:"monospace";font-size:8px}#chart-ede05a3f-2908-4916-99f4-e920cbd412c8 .tooltip text{font-family:"monospace";font-size:16px}#chart-ede05a3f-2908-4916-99f4-e920cbd412c8 text.no_data{font-size:64px}
#chart-ede05a3f-2908-4916-99f4-e920cbd412c8{background-color:black}#chart-ede05a3f-2908-4916-99f4-e920cbd412c8 path,#chart-ede05a3f-2908-4916-99f4-e920cbd412c8 line,#chart-ede05a3f-2908-4916-99f4-e920cbd412c8 rect,#chart-ede05a3f-2908-4916-99f4-e920cbd412c8 circle{-webkit-transition:1s ease-out;-moz-transition:1s ease-out;transition:1s ease-out}#chart-ede05a3f-2908-4916-99f4-e920cbd412c8 .graph &gt; .background{fill:black}#chart-ede05a3f-2908-4916-99f4-e920cbd412c8 .plot &gt; .background{fill:#111}#chart-ede05a3f-2908-4916-99f4-e920cbd412c8 .graph{fill:#999}#chart-ede05a3f-2908-4916-99f4-e920cbd412c8 text.no_data{fill:#eee}#chart-ede05a3f-2908-4916-99f4-e920cbd412c8 .title{fill:#eee}#chart-ede05a3f-2908-4916-99f4-e920cbd412c8 .legends .legend text{fill:#999}#chart-ede05a3f-2908-4916-99f4-e920cbd412c8 .legends .legend:hover text{fill:#eee}#chart-ede05a3f-2908-4916-99f4-e920cbd412c8 .axis .line{stroke:#eee}#chart-ede05a3f-2908-4916-99f4-e920cbd412c8 .axis .guide.line{stroke:#555}#chart-ede05a3f-2908-4916-99f4-e920cbd412c8 .axis .major.line{stroke:#999}#chart-ede05a3f-2908-4916-99f4-e920cbd412c8 .axis text.major{stroke:#eee;fill:#eee}#chart-ede05a3f-2908-4916-99f4-e920cbd412c8 .axis.y .guides:hover .guide.line,#chart-ede05a3f-2908-4916-99f4-e920cbd412c8 .line-graph .axis.x .guides:hover .guide.line,#chart-ede05a3f-2908-4916-99f4-e920cbd412c8 .stackedline-graph .axis.x .guides:hover .guide.line,#chart-ede05a3f-2908-4916-99f4-e920cbd412c8 .xy-graph .axis.x .guides:hover .guide.line{stroke:#eee}#chart-ede05a3f-2908-4916-99f4-e920cbd412c8 .axis .guides:hover text{fill:#eee}#chart-ede05a3f-2908-4916-99f4-e920cbd412c8 .reactive{fill-opacity:.1}#chart-ede05a3f-2908-4916-99f4-e920cbd412c8 .reactive.active,#chart-ede05a3f-2908-4916-99f4-e920cbd412c8 .active .reactive{fill-opacity:.75}#chart-ede05a3f-2908-4916-99f4-e920cbd412c8 .series{stroke-width:1.0;stroke-linejoin:round;stroke-linecap:round;stroke-dasharray:0,0}#chart-ede05a3f-2908-4916-99f4-e920cbd412c8 .series text{fill:#eee}#chart-ede05a3f-2908-4916-99f4-e920cbd412c8 .tooltip rect{fill:#111;stroke:#eee}#chart-ede05a3f-2908-4916-99f4-e920cbd412c8 .tooltip text{fill:#eee}#chart-ede05a3f-2908-4916-99f4-e920cbd412c8 .map-element{fill:#999;stroke:#555 !important;opacity:.9;stroke-width:3;-webkit-transition:250ms;-moz-transition:250ms;-o-transition:250ms;transition:250ms}#chart-ede05a3f-2908-4916-99f4-e920cbd412c8 .map-element:hover{opacity:1;stroke-width:10}#chart-ede05a3f-2908-4916-99f4-e920cbd412c8 .color-0,#chart-ede05a3f-2908-4916-99f4-e920cbd412c8 .color-0 a:visited{stroke:#ff5995;fill:#ff5995}#chart-ede05a3f-2908-4916-99f4-e920cbd412c8 .color-1,#chart-ede05a3f-2908-4916-99f4-e920cbd412c8 .color-1 a:visited{stroke:#b6e354;fill:#b6e354}#chart-ede05a3f-2908-4916-99f4-e920cbd412c8 .color-2,#chart-ede05a3f-2908-4916-99f4-e920cbd412c8 .color-2 a:visited{stroke:#feed6c;fill:#feed6c}#chart-ede05a3f-2908-4916-99f4-e920cbd412c8 .color-3,#chart-ede05a3f-2908-4916-99f4-e920cbd412c8 .color-3 a:visited{stroke:#8cedff;fill:#8cedff}#chart-ede05a3f-2908-4916-99f4-e920cbd412c8 .color-4,#chart-ede05a3f-2908-4916-99f4-e920cbd412c8 .color-4 a:visited{stroke:#9e6ffe;fill:#9e6ffe}#chart-ede05a3f-2908-4916-99f4-e920cbd412c8 .color-5,#chart-ede05a3f-2908-4916-99f4-e920cbd412c8 .color-5 a:visited{stroke:#899ca1;fill:#899ca1}#chart-ede05a3f-2908-4916-99f4-e920cbd412c8 .color-6,#chart-ede05a3f-2908-4916-99f4-e920cbd412c8 .color-6 a:visited{stroke:#f8f8f2;fill:#f8f8f2}#chart-ede05a3f-2908-4916-99f4-e920cbd412c8 .color-7,#chart-ede05a3f-2908-4916-99f4-e920cbd412c8 .color-7 a:visited{stroke:#bf4646;fill:#bf4646}#chart-ede05a3f-2908-4916-99f4-e920cbd412c8 .color-8,#chart-ede05a3f-2908-4916-99f4-e920cbd412c8 .color-8 a:visited{stroke:#516083;fill:#516083}#chart-ede05a3f-2908-4916-99f4-e920cbd412c8 .color-9,#chart-ede05a3f-2908-4916-99f4-e920cbd412c8 .color-9 a:visited{stroke:#f92672;fill:#f92672}#chart-ede05a3f-2908-4916-99f4-e920cbd412c8 .color-10,#chart-ede05a3f-2908-4916-99f4-e920cbd412c8 .color-10 a:visited{stroke:#82b414;fill:#82b414}#chart-ede05a3f-2908-4916-99f4-e920cbd412c8 .color-11,#chart-ede05a3f-2908-4916-99f4-e920cbd412c8 .color-11 a:visited{stroke:#fd971f;fill:#fd971f}#chart-ede05a3f-2908-4916-99f4-e920cbd412c8 .color-12,#chart-ede05a3f-2908-4916-99f4-e920cbd412c8 .color-12 a:visited{stroke:#56c2d6;fill:#56c2d6}#chart-ede05a3f-2908-4916-99f4-e920cbd412c8 .color-13,#chart-ede05a3f-2908-4916-99f4-e920cbd412c8 .color-13 a:visited{stroke:#808384;fill:#808384}#chart-ede05a3f-2908-4916-99f4-e920cbd412c8 .color-14,#chart-ede05a3f-2908-4916-99f4-e920cbd412c8 .color-14 a:visited{stroke:#8c54fe;fill:#8c54fe}#chart-ede05a3f-2908-4916-99f4-e920cbd412c8 .color-15,#chart-ede05a3f-2908-4916-99f4-e920cbd412c8 .color-15 a:visited{stroke:#465457;fill:#465457}
#chart-ede05a3f-2908-4916-99f4-e920cbd412c8 text.no_data{text-anchor:middle}#chart-ede05a3f-2908-4916-99f4-e920cbd412c8 .guide.line{fill-opacity:0}#chart-ede05a3f-2908-4916-99f4-e920cbd412c8 .centered{text-anchor:middle}#chart-ede05a3f-2908-4916-99f4-e920cbd412c8 .title{text-anchor:middle}#chart-ede05a3f-2908-4916-99f4-e920cbd412c8 .legends .legend text{fill-opacity:1}#chart-ede05a3f-2908-4916-99f4-e920cbd412c8 .axis.x text{text-anchor:middle}#chart-ede05a3f-2908-4916-99f4-e920cbd412c8 .axis.x:not(.web) text[transform]{text-anchor:start}#chart-ede05a3f-2908-4916-99f4-e920cbd412c8 .axis.y text{text-anchor:end}#chart-ede05a3f-2908-4916-99f4-e920cbd412c8 .axis.y2 text{text-anchor:start}#chart-ede05a3f-2908-4916-99f4-e920cbd412c8 .axis.y .logarithmic text:not(.major),#chart-ede05a3f-2908-4916-99f4-e920cbd412c8 .axis.y2 .logarithmic text:not(.major){font-size:50%}#chart-ede05a3f-2908-4916-99f4-e920cbd412c8 .axis .guide.line{stroke-dasharray:4,4}#chart-ede05a3f-2908-4916-99f4-e920cbd412c8 .axis .major.guide.line{stroke-dasharray:6,6}#chart-ede05a3f-2908-4916-99f4-e920cbd412c8 .axis text.major{stroke-width:0.5px}#chart-ede05a3f-2908-4916-99f4-e920cbd412c8 .horizontal .axis.y .guide.line,#chart-ede05a3f-2908-4916-99f4-e920cbd412c8 .horizontal .axis.y2 .guide.line,#chart-ede05a3f-2908-4916-99f4-e920cbd412c8 .vertical .axis.x .guide.line{opacity:0}#chart-ede05a3f-2908-4916-99f4-e920cbd412c8 .horizontal .axis.always_show .guide.line,#chart-ede05a3f-2908-4916-99f4-e920cbd412c8 .vertical .axis.always_show .guide.line{opacity:1 !important}#chart-ede05a3f-2908-4916-99f4-e920cbd412c8 .axis.y .guides:hover .guide.line,#chart-ede05a3f-2908-4916-99f4-e920cbd412c8 .axis.y2 .guides:hover .guide.line,#chart-ede05a3f-2908-4916-99f4-e920cbd412c8 .axis.x .guides:hover .guide.line{opacity:1}#chart-ede05a3f-2908-4916-99f4-e920cbd412c8 .axis .guides:hover text{opacity:1}#chart-ede05a3f-2908-4916-99f4-e920cbd412c8 .nofill{fill:none}#chart-ede05a3f-2908-4916-99f4-e920cbd412c8 .subtle-fill{fill-opacity:.2}#chart-ede05a3f-2908-4916-99f4-e920cbd412c8 .dot{stroke-width:1px;fill-opacity:1}#chart-ede05a3f-2908-4916-99f4-e920cbd412c8 .dot.active{stroke-width:5px}#chart-ede05a3f-2908-4916-99f4-e920cbd412c8 .series text{stroke:none}#chart-ede05a3f-2908-4916-99f4-e920cbd412c8 .series text.active{opacity:1}#chart-ede05a3f-2908-4916-99f4-e920cbd412c8 .tooltip rect{fill-opacity:0.8}#chart-ede05a3f-2908-4916-99f4-e920cbd412c8 .tooltip text{fill-opacity:1}#chart-ede05a3f-2908-4916-99f4-e920cbd412c8 .tooltip text tspan.label{fill-opacity:.8}</style><script type="text/javascript">window.config = {"inner_radius": 0, "print_values": false, "tooltip_font_size": 16, "xrange": null, "legend_at_bottom_columns": null, "height": 600, "legend_at_bottom": false, "show_legend": true, "show_dots": true, "explicit_size": true, "legend_font_size": 14, "y_labels_major": null, "show_minor_x_labels": true, "major_label_font_size": 10, "fill": true, "half_pie": false, "x_value_formatter": null, "style": {"opacity": ".1", "foreground": "#999", "plot_background": "#111", "stroke_style": "round", "foreground_light": "#eee", "transition": "1s ease-out", "foreground_dark": "#555", "stroke_dasharray": "0,0", "opacity_hover": ".75", "stroke_width": 1.0, "colors": ["#ff5995", "#b6e354", "#feed6c", "#8cedff", "#9e6ffe", "#899ca1", "#f8f8f2", "#bf4646", "#516083", "#f92672", "#82b414", "#fd971f", "#56c2d6", "#808384", "#8c54fe", "#465457"], "background": "black", "font_family": "monospace"}, "x_label_rotation": 0, "missing_value_fill_truncation": "x", "zero": 0, "margin_right": null, "interpolation_parameters": {}, "x_labels_major": null, "rounded_bars": null, "label_font_size": 10, "show_y_labels": true, "dots_size": 2.5, "show_y_guides": true, "show_minor_y_labels": true, "x_labels": ["09", "11", "12", "14", "15", "16", "17", "18"], "y_title": null, "value_font_size": 8, "order_min": null, "disable_xml_declaration": false, "strict": false, "css": ["style.css", "graph.css"], "mode": null, "show_only_major_dots": false, "human_readable": false, "show_x_guides": false, "spacing": 10, "y_label_rotation": 0, "pretty_print": false, "tooltip_border_radius": 0, "interpolate": "cubic", "js": ["http://kozea.github.io/pygal.js/javascripts/svg.jquery.js", "http://kozea.github.io/pygal.js/javascripts/pygal-tooltips.js"], "y_labels": null, "y_labels_major_every": null, "x_label_format": "%Y-%m-%d %H:%M:%S.%f", "interpolation_precision": 250, "x_title": null, "value_formatter": null, "no_data_font_size": 64, "logarithmic": false, "x_labels_major_count": null, "print_zeroes": false, "no_data_text": "No data", "truncate_legend": null, "x_labels_major_every": null, "title": "Registros processados: 1858 \n \n                    Registros pendentes: 0 ", "legend_box_size": 12, "no_prefix": false, "stroke": true, "title_font_size": 16, "include_x_axis": false, "range": null, "truncate_label": null, "margin_top": null, "margin_left": null, "y_labels_major_count": null, "margin_bottom": null, "margin": 20, "stack_from_top": false, "width": 900, "show_x_labels": true}</script><script type="text/javascript" xlink:href="http://kozea.github.io/pygal.js/javascripts/svg.jquery.js" /><script type="text/javascript" xlink:href="http://kozea.github.io/pygal.js/javascripts/pygal-tooltips.js" /></defs><title>Registros processados: 1858 
 
                    Registros pendentes: 0 </title><g class="graph line-graph vertical"><rect class="background" height="600" width="900" x="0" y="0" /><g class="plot" transform="translate(205, 98)"><rect class="background" height="462" width="674.4" x="0" y="0" /><g class="axis y"><g class="guides"><path class="guide line" d="M0.000000 429.629675 h674.400000" /><text class="" x="-5" y="433.129674749">-100.0</text></g><g class="guides"><path class="major line" d="M0.000000 382.573315 h674.400000" /><text class="major" x="-5" y="386.073315039">0.0</text></g><g class="guides"><path class="guide line" d="M0.000000 335.516955 h674.400000" /><text class="" x="-5" y="339.01695533">100.0</text></g><g class="guides"><path class="guide line" d="M0.000000 288.460596 h674.400000" /><text class="" x="-5" y="291.960595621">200.0</text></g><g class="guides"><path class="guide line" d="M0.000000 241.404236 h674.400000" /><text class="" x="-5" y="244.904235912">300.0</text></g><g class="guides"><path class="guide line" d="M0.000000 194.347876 h674.400000" /><text class="" x="-5" y="197.847876203">400.0</text></g><g class="guides"><path class="major guide line" d="M0.000000 147.291516 h674.400000" /><text class="major" x="-5" y="150.791516494">500.0</text></g><g class="guides"><path class="guide line" d="M0.000000 100.235157 h674.400000" /><text class="" x="-5" y="103.735156785">600.0</text></g><g class="guides"><path class="guide line" d="M0.000000 53.178797 h674.400000" /><text class="" x="-5" y="56.6787970756">700.0</text></g></g><g class="axis x"><g class="guides"><path class="line" d="M12.969231 0.000000 v462.000000" /><text class="" x="12.9692307692" y="477.0">09</text></g><g class="guides"><path class="guide line" d="M105.606593 0.000000 v462.000000" /><text class="" x="105.606593407" y="477.0">11</text></g><g class="guides"><path class="guide line" d="M198.243956 0.000000 v462.000000" /><text class="" x="198.243956044" y="477.0">12</text></g><g class="guides"><path class="guide line" d="M290.881319 0.000000 v462.000000" /><text class="" x="290.881318681" y="477.0">14</text></g><g class="guides"><path class="guide line" d="M383.518681 0.000000 v462.000000" /><text class="" x="383.518681319" y="477.0">15</text></g><g class="guides"><path class="guide line" d="M476.156044 0.000000 v462.000000" /><text class="" x="476.156043956" y="477.0">16</text></g><g class="guides"><path class="guide line" d="M568.793407 0.000000 v462.000000" /><text class="" x="568.793406593" y="477.0">17</text></g><g class="guides"><path class="guide line" d="M661.430769 0.000000 v462.000000" /><text class="" x="661.430769231" y="477.0">18</text></g></g><g class="series serie-0 color-0"><path class="line reactive" d="M12.969231 382.573315 L12.969231 153.408843 13.339780 152.992090 13.710330 152.575367 14.080879 152.158706 14.451429 151.742137 14.821978 151.325691 15.192527 150.909400 15.563077 150.493293 15.933626 150.077402 16.304176 149.661757 16.674725 149.246389 17.045275 148.831329 17.415824 148.416608 17.786374 148.002256 18.156923 147.588305 18.527473 147.174784 18.898022 146.761726 19.268571 146.349161 19.639121 145.937118 20.009670 145.525630 20.380220 145.114728 20.750769 144.704441 21.121319 144.294800 21.491868 143.885838 21.862418 143.477583 22.232967 143.070068 22.603516 142.663322 22.974066 142.257377 23.344615 141.852263 23.715165 141.448012 24.085714 141.044653 24.456264 140.642219 24.826813 140.240738 25.197363 139.840244 25.567912 139.440765 25.938462 139.042334 26.309011 138.644980 26.679560 138.248735 27.050110 137.853629 27.420659 137.459693 27.791209 137.066959 28.161758 136.675456 28.532308 136.285215 28.902857 135.896268 29.273407 135.508645 29.643956 135.122377 30.014505 134.737494 30.385055 134.354028 30.755604 133.972010 31.126154 133.591469 31.496703 133.212437 31.867253 132.834945 32.237802 132.459024 32.608352 132.084703 32.978901 131.712015 33.349451 131.340990 33.720000 130.971658 34.090549 130.604050 34.461099 130.238198 34.831648 129.874132 35.202198 129.511883 35.572747 129.151481 35.943297 128.792957 36.313846 128.436343 36.684396 128.081669 37.054945 127.728966 37.425495 127.378264 37.796044 127.029594 38.166593 126.682988 38.537143 126.338475 38.907692 125.996088 39.278242 125.655856 39.648791 125.317810 40.019341 124.981981 40.389890 124.648400 40.760440 124.317098 41.130989 123.988106 41.501538 123.661453 41.872088 123.337172 42.242637 123.015293 42.613187 122.695846 42.983736 122.378863 43.354286 122.064374 43.724835 121.752410 44.095385 121.443002 44.465934 121.136181 44.836484 120.831977 45.207033 120.530421 45.577582 120.231544 45.948132 119.935377 46.318681 119.641951 46.689231 119.351296 47.059780 119.063443 47.430330 118.778424 47.800879 118.496268 48.171429 118.217006 48.541978 117.940670 48.912527 117.667290 49.283077 117.396897 49.653626 117.129522 50.024176 116.865196 50.394725 116.603948 50.765275 116.345811 51.135824 116.090815 51.506374 115.838990 51.876923 115.590368 52.247473 115.344980 52.618022 115.102855 52.988571 114.864025 53.359121 114.628521 53.729670 114.396374 54.100220 114.167613 54.470769 113.942271 54.841319 113.720377 55.211868 113.501964 55.582418 113.287060 55.952967 113.075698 56.323516 112.867908 56.694066 112.663721 57.064615 112.463167 57.435165 112.266278 57.805714 112.073084 58.176264 111.883616 58.546813 111.697904 58.917363 111.515981 59.287912 111.337875 59.658462 111.163619 60.029011 110.993243 60.399560 110.826777 60.770110 110.664254 61.140659 110.505702 61.511209 110.351153 61.881758 110.200639 62.252308 110.054189 62.622857 109.911835 62.993407 109.773607 63.363956 109.639536 63.734505 109.509653 64.105055 109.383989 64.475604 109.262574 64.846154 109.145439 65.216703 109.032616 65.587253 108.924134 65.957802 108.820025 66.328352 108.720319 66.698901 108.625048 67.069451 108.534242 67.440000 108.447931 67.810549 108.366147 68.181099 108.288921 68.551648 108.216283 68.922198 108.148263 69.292747 108.084894 69.663297 108.026205 70.033846 107.972228 70.404396 107.922992 70.774945 107.878530 71.145495 107.838871 71.516044 107.804047 71.886593 107.774089 72.257143 107.749026 72.627692 107.728890 72.998242 107.713712 73.368791 107.703523 73.739341 107.698353 74.109890 107.698233 74.480440 107.703194 74.850989 107.713266 75.221538 107.728481 75.592088 107.748870 75.962637 107.774462 76.333187 107.805290 76.703736 107.841383 77.074286 107.882772 77.444835 107.929489 77.815385 107.981563 78.185934 108.039027 78.556484 108.101910 78.927033 108.170243 79.297582 108.244058 79.668132 108.323385 80.038681 108.408255 80.409231 108.498698 80.779780 108.594745 81.150330 108.696428 81.520879 108.803777 81.891429 108.916822 82.261978 109.035595 82.632527 109.160126 83.003077 109.290447 83.373626 109.426587 83.744176 109.568578 84.114725 109.716451 84.485275 109.870236 84.855824 110.029964 85.226374 110.195666 85.596923 110.367373 85.967473 110.545115 86.338022 110.728924 86.708571 110.918829 87.079121 111.114863 87.449670 111.317055 87.820220 111.525436 88.190769 111.740038 88.561319 111.960891 88.931868 112.188026 89.302418 112.421473 89.672967 112.661264 90.043516 112.907429 90.414066 113.159998 90.784615 113.419004 91.155165 113.684477 91.525714 113.956446 91.896264 114.234944 92.266813 114.520001 92.637363 114.811648 93.007912 115.109915 93.378462 115.414834 93.749011 115.726434 94.119560 116.044748 94.490110 116.369805 94.860659 116.701637 95.231209 117.040275 95.601758 117.385748 95.972308 117.738088 96.342857 118.097326 96.713407 118.463493 97.083956 118.836619 97.454505 119.216734 97.825055 119.603871 98.195604 119.998060 98.566154 120.399330 98.936703 120.807715 99.307253 121.223243 99.677802 121.645946 100.048352 122.075854 100.418901 122.512999 100.789451 122.957412 101.160000 123.409122 101.530549 123.868161 101.901099 124.334560 102.271648 124.808349 102.642198 125.289559 103.012747 125.778222 103.383297 126.274367 103.753846 126.778025 104.124396 127.289228 104.494945 127.808006 104.865495 128.334391 105.236044 128.868411 105.606593 129.410100 105.977143 129.959473 106.347692 130.516497 106.718242 131.081122 107.088791 131.653299 107.459341 132.232982 107.829890 132.820120 108.200440 133.414667 108.570989 134.016572 108.941538 134.625788 109.312088 135.242267 109.682637 135.865960 110.053187 136.496818 110.423736 137.134793 110.794286 137.779837 111.164835 138.431901 111.535385 139.090936 111.905934 139.756895 112.276484 140.429729 112.647033 141.109389 113.017582 141.795827 113.388132 142.488995 113.758681 143.188844 114.129231 143.895325 114.499780 144.608391 114.870330 145.327992 115.240879 146.054081 115.611429 146.786609 115.981978 147.525527 116.352527 148.270787 116.723077 149.022341 117.093626 149.780139 117.464176 150.544135 117.834725 151.314279 118.205275 152.090522 118.575824 152.872817 118.946374 153.661115 119.316923 154.455368 119.687473 155.255526 120.058022 156.061542 120.428571 156.873367 120.799121 157.690953 121.169670 158.514252 121.540220 159.343214 121.910769 160.177791 122.281319 161.017936 122.651868 161.863599 123.022418 162.714732 123.392967 163.571287 123.763516 164.433215 124.134066 165.300467 124.504615 166.172997 124.875165 167.050754 125.245714 167.933690 125.616264 168.821757 125.986813 169.714908 126.357363 170.613092 126.727912 171.516262 127.098462 172.424369 127.469011 173.337365 127.839560 174.255201 128.210110 175.177829 128.580659 176.105201 128.951209 177.037268 129.321758 177.973981 129.692308 178.915293 130.062857 179.861154 130.433407 180.811517 130.803956 181.766332 131.174505 182.725552 131.545055 183.689128 131.915604 184.657012 132.286154 185.629154 132.656703 186.605508 133.027253 187.586023 133.397802 188.570652 133.768352 189.559347 134.138901 190.552058 134.509451 191.548738 134.880000 192.549338 135.250549 193.553809 135.621099 194.562104 135.991648 195.574173 136.362198 196.589969 136.732747 197.609442 137.103297 198.632545 137.473846 199.659229 137.844396 200.689445 138.214945 201.723146 138.585495 202.760281 138.956044 203.800805 139.326593 204.844666 139.697143 205.891819 140.067692 206.942213 140.438242 207.995800 140.808791 209.052532 141.179341 210.112361 141.549890 211.175238 141.920440 212.241115 142.290989 213.309943 142.661538 214.381674 143.032088 215.456259 143.402637 216.533650 143.773187 217.613798 144.143736 218.696656 144.514286 219.782174 144.884835 220.870304 145.255385 221.960998 145.625934 223.054207 145.996484 224.149883 146.367033 225.247977 146.737582 226.348441 147.108132 227.451227 147.478681 228.556286 147.849231 229.663570 148.219780 230.773029 148.590330 231.884617 148.960879 232.998283 149.331429 234.113981 149.701978 235.231661 150.072527 236.351275 150.443077 237.472775 150.813626 238.596111 151.184176 239.721236 151.554725 240.848102 151.925275 241.976659 152.295824 243.106860 152.666374 244.238656 153.036923 245.371998 153.407473 246.506838 153.778022 247.643127 154.148571 248.780818 154.519121 249.919862 154.889670 251.060209 155.260220 252.201813 155.630769 253.344624 156.001319 254.488594 156.371868 255.633674 156.742418 256.779817 157.112967 257.926973 157.483516 259.075094 157.854066 260.224132 158.224615 261.374039 158.595165 262.524765 158.965714 263.676263 159.336264 264.828483 159.706813 265.981378 160.077363 267.134900 160.447912 268.288999 160.818462 269.443627 161.189011 270.598736 161.559560 271.754277 161.930110 272.910203 162.300659 274.066463 162.671209 275.223011 163.041758 276.379797 163.412308 277.536774 163.782857 278.693892 164.153407 279.851104 164.523956 281.008360 164.894505 282.165613 165.265055 283.322813 165.635604 284.479914 166.006154 285.636865 166.376703 286.793619 166.747253 287.950127 167.117802 289.106340 167.488352 290.262212 167.858901 291.417692 168.229451 292.572732 168.600000 293.727284 168.970549 294.881300 169.341099 296.034731 169.711648 297.187529 170.082198 298.339645 170.452747 299.491031 170.823297 300.641638 171.193846 301.791418 171.564396 302.940323 171.934945 304.088303 172.305495 305.235311 172.676044 306.381299 173.046593 307.526217 173.417143 308.670017 173.787692 309.812651 174.158242 310.954071 174.528791 312.094227 174.899341 313.233072 175.269890 314.370557 175.640440 315.506634 176.010989 316.641254 176.381538 317.774368 176.752088 318.905929 177.122637 320.035888 177.493187 321.164196 177.863736 322.290806 178.234286 323.415667 178.604835 324.538733 178.975385 325.659955 179.345934 326.779284 179.716484 327.896671 180.087033 329.012069 180.457582 330.125429 180.828132 331.236703 181.198681 332.345841 181.569231 333.452796 181.939780 334.557519 182.310330 335.659962 182.680879 336.760076 183.051429 337.857813 183.421978 338.953125 183.792527 340.045962 184.163077 341.136277 184.533626 342.224021 184.904176 343.309146 185.274725 344.391602 185.645275 345.471343 186.015824 346.548319 186.386374 347.622481 186.756923 348.693783 187.127473 349.762174 187.498022 350.827607 187.868571 351.890032 188.239121 352.949403 188.609670 354.005670 188.980220 355.058784 189.350769 356.108698 189.721319 357.155363 190.091868 358.198731 190.462418 359.238752 190.832967 360.275379 191.203516 361.308563 191.574066 362.338256 191.944615 363.364409 192.315165 364.386974 192.685714 365.405902 193.056264 366.421146 193.426813 367.432656 193.797363 368.440384 194.167912 369.444281 194.538462 370.444300 194.909011 371.440391 195.279560 372.432507 195.650110 373.420599 196.020659 374.404618 196.391209 375.384516 196.761758 376.360245 197.132308 377.331756 197.502857 378.299001 197.873407 379.261930 198.243956 380.220497 198.614505 381.174654 198.985055 382.124359 199.355604 383.069576 199.726154 384.010263 200.096703 384.946382 200.467253 385.877895 200.837802 386.804761 201.208352 387.726943 201.578901 388.644401 201.949451 389.557095 202.320000 390.464987 202.690549 391.368038 203.061099 392.266209 203.431648 393.159461 203.802198 394.047754 204.172747 394.931050 204.543297 395.809309 204.913846 396.682492 205.284396 397.550562 205.654945 398.413477 206.025495 399.271200 206.396044 400.123691 206.766593 400.970911 207.137143 401.812821 207.507692 402.649383 207.878242 403.480557 208.248791 404.306303 208.619341 405.126584 208.989890 405.941359 209.360440 406.750590 209.730989 407.554238 210.101538 408.352264 210.472088 409.144628 210.842637 409.931293 211.213187 410.712217 211.583736 411.487363 211.954286 412.256692 212.324835 413.020164 212.695385 413.777741 213.065934 414.529382 213.436484 415.275050 213.807033 416.014706 214.177582 416.748309 214.548132 417.475822 214.918681 418.197204 215.289231 418.912418 215.659780 419.621423 216.030330 420.324182 216.400879 421.020654 216.771429 421.710801 217.141978 422.394584 217.512527 423.071963 217.883077 423.742900 218.253626 424.407356 218.624176 425.065291 218.994725 425.716667 219.365275 426.361444 219.735824 426.999584 220.106374 427.631046 220.476923 428.255794 220.847473 428.873786 221.218022 429.484984 221.588571 430.089350 221.959121 430.686844 222.329670 431.277426 222.700220 431.861059 223.070769 432.437702 223.441319 433.007318 223.811868 433.569866 224.182418 434.125308 224.552967 434.673604 224.923516 435.214716 225.294066 435.748605 225.664615 436.275232 226.035165 436.794556 226.405714 437.306541 226.776264 437.811145 227.146813 438.308331 227.517363 438.798059 227.887912 439.280291 228.258462 439.754986 228.629011 440.222107 228.999560 440.681614 229.370110 441.133468 229.740659 441.577629 230.111209 442.014060 230.481758 442.442721 230.852308 442.863572 231.222857 443.276575 231.593407 443.681691 231.963956 444.078880 232.334505 444.468104 232.705055 444.849323 233.075604 445.222499 233.446154 445.587593 233.816703 445.944565 234.187253 446.293376 234.557802 446.633987 234.928352 446.966360 235.298901 447.290454 235.669451 447.606232 236.040000 447.913654 236.410549 448.212681 236.781099 448.503274 237.151648 448.785394 237.522198 449.059002 237.892747 449.324058 238.263297 449.580525 238.633846 449.828361 239.004396 450.067530 239.374945 450.297991 239.745495 450.519706 240.116044 450.732635 240.486593 450.936740 240.857143 451.131981 241.227692 451.318319 241.598242 451.495716 241.968791 451.664132 242.339341 451.823528 242.709890 451.973865 243.080440 452.115104 243.450989 452.247206 243.821538 452.370132 244.192088 452.483844 244.562637 452.588300 244.933187 452.683464 245.303736 452.769296 245.674286 452.845756 246.044835 452.912806 246.415385 452.970406 246.785934 453.018518 247.156484 453.057103 247.527033 453.086121 247.897582 453.105533 248.268132 453.115301 248.638681 453.115385 249.009231 453.105746 249.379780 453.086345 249.750330 453.057144 250.120879 453.018102 250.491429 452.969182 250.861978 452.910343 251.232527 452.841548 251.603077 452.762756 251.973626 452.673929 252.344176 452.575028 252.714725 452.466013 253.085275 452.346847 253.455824 452.217488 253.826374 452.077900 254.196923 451.928042 254.567473 451.767875 254.938022 451.597360 255.308571 451.416459 255.679121 451.225133 256.049670 451.023341 256.420220 450.811046 256.790769 450.588208 257.161319 450.354788 257.531868 450.110747 257.902418 449.856045 258.272967 449.590645 258.643516 449.314507 259.014066 449.027591 259.384615 448.729860 259.755165 448.421273 260.125714 448.101791 260.496264 447.771376 260.866813 447.429989 261.237363 447.077590 261.607912 446.714141 261.978462 446.339602 262.349011 445.953935 262.719560 445.557099 263.090110 445.149057 263.460659 444.729769 263.831209 444.299197 264.201758 443.857300 264.572308 443.404040 264.942857 442.939379 265.313407 442.463276 265.683956 441.975693 266.054505 441.476591 266.425055 440.965931 266.795604 440.443673 267.166154 439.909779 267.536703 439.364210 267.907253 438.806926 268.277802 438.237889 268.648352 437.657059 269.018901 437.064397 269.389451 436.459865 269.760000 435.843424 270.130549 435.215033 270.501099 434.574655 270.871648 433.922249 271.242198 433.257778 271.612747 432.581202 271.983297 431.892482 272.353846 431.191579 272.724396 430.478453 273.094945 429.753067 273.465495 429.015380 273.836044 428.265354 274.206593 427.502949 274.577143 426.728128 274.947692 425.940849 275.318242 425.141076 275.688791 424.328767 276.059341 423.503885 276.429890 422.666391 276.800440 421.816245 277.170989 420.953408 277.541538 420.077841 277.912088 419.189505 278.282637 418.288361 278.653187 417.374371 279.023736 416.447494 279.394286 415.507692 279.764835 414.554927 280.135385 413.589158 280.505934 412.610346 280.876484 411.618454 281.247033 410.613441 281.617582 409.595269 281.988132 408.563898 282.358681 407.519290 282.729231 406.461405 283.099780 405.390205 283.470330 404.305650 283.840879 403.207701 284.211429 402.096320 284.581978 400.971467 284.952527 399.833103 285.323077 398.681189 285.693626 397.515686 286.064176 396.336555 286.434725 395.143757 286.805275 393.937253 287.175824 392.717003 287.546374 391.482970 287.916923 390.235113 288.287473 388.973394 288.658022 387.697773 289.028571 386.408212 289.399121 385.104671 289.769670 383.787112 290.140220 382.455496 290.510769 381.109782 290.881319 379.749933 291.251868 378.375943 291.622418 376.987936 291.992967 375.586073 292.363516 374.170511 292.734066 372.741411 293.104615 371.298930 293.475165 369.843229 293.845714 368.374465 294.216264 366.892798 294.586813 365.398386 294.957363 363.891389 295.327912 362.371966 295.698462 360.840275 296.069011 359.296475 296.439560 357.740726 296.810110 356.173186 297.180659 354.594014 297.551209 353.003369 297.921758 351.401411 298.292308 349.788297 298.662857 348.164187 299.033407 346.529240 299.403956 344.883615 299.774505 343.227471 300.145055 341.560966 300.515604 339.884260 300.886154 338.197511 301.256703 336.500879 301.627253 334.794522 301.997802 333.078600 302.368352 331.353270 302.738901 329.618693 303.109451 327.875027 303.480000 326.122431 303.850549 324.361065 304.221099 322.591086 304.591648 320.812653 304.962198 319.025927 305.332747 317.231066 305.703297 315.428228 306.073846 313.617572 306.444396 311.799258 306.814945 309.973445 307.185495 308.140291 307.556044 306.299955 307.926593 304.452597 308.297143 302.598375 308.667692 300.737447 309.038242 298.869974 309.408791 296.996114 309.779341 295.116026 310.149890 293.229869 310.520440 291.337801 310.890989 289.439983 311.261538 287.536571 311.632088 285.627727 312.002637 283.713608 312.373187 281.794373 312.743736 279.870182 313.114286 277.941193 313.484835 276.007566 313.855385 274.069458 314.225934 272.127030 314.596484 270.180440 314.967033 268.229847 315.337582 266.275409 315.708132 264.317287 316.078681 262.355638 316.449231 260.390622 316.819780 258.422398 317.190330 256.451125 317.560879 254.476960 317.931429 252.500065 318.301978 250.520597 318.672527 248.538715 319.043077 246.554578 319.413626 244.568345 319.784176 242.580176 320.154725 240.590229 320.525275 238.598662 320.895824 236.605636 321.266374 234.611309 321.636923 232.615839 322.007473 230.619386 322.378022 228.622109 322.748571 226.624166 323.119121 224.625717 323.489670 222.626920 323.860220 220.627935 324.230769 218.628920 324.601319 216.630034 324.971868 214.631436 325.342418 212.633286 325.712967 210.635742 326.083516 208.638962 326.454066 206.643107 326.824615 204.648334 327.195165 202.654804 327.565714 200.662674 327.936264 198.672103 328.306813 196.683251 328.677363 194.696277 329.047912 192.711339 329.418462 190.728597 329.789011 188.748209 330.159560 186.770334 330.530110 184.795132 330.900659 182.822760 331.271209 180.853379 331.641758 178.887147 332.012308 176.924222 332.382857 174.964765 332.753407 173.008933 333.123956 171.056886 333.494505 169.108783 333.865055 167.164782 334.235604 165.225043 334.606154 163.289724 334.976703 161.358985 335.347253 159.432984 335.717802 157.511880 336.088352 155.595832 336.458901 153.685000 336.829451 151.779542 337.200000 149.879616 337.570549 147.985383 337.941099 146.097000 338.311648 144.214628 338.682198 142.338424 339.052747 140.468547 339.423297 138.605158 339.793846 136.748414 340.164396 134.898474 340.534945 133.055498 340.905495 131.219644 341.276044 129.391071 341.646593 127.569939 342.017143 125.756405 342.387692 123.950630 342.758242 122.152772 343.128791 120.362990 343.499341 118.581442 343.869890 116.808288 344.240440 115.043688 344.610989 113.287798 344.981538 111.540780 345.352088 109.802791 345.722637 108.073990 346.093187 106.354537 346.463736 104.644590 346.834286 102.944309 347.204835 101.253851 347.575385 99.573377 347.945934 97.903045 348.316484 96.243014 348.687033 94.593443 349.057582 92.954490 349.428132 91.326316 349.798681 89.709078 350.169231 88.102936 350.539780 86.508049 350.910330 84.924575 351.280879 83.352673 351.651429 81.792503 352.021978 80.244224 352.392527 78.707993 352.763077 77.183971 353.133626 75.672316 353.504176 74.173187 353.874725 72.686743 354.245275 71.213143 354.615824 69.752546 354.986374 68.305111 355.356923 66.870996 355.727473 65.450361 356.098022 64.043365 356.468571 62.650166 356.839121 61.270924 357.209670 59.905797 357.580220 58.554945 357.950769 57.218525 358.321319 55.896698 358.691868 54.589623 359.062418 53.297457 359.432967 52.020360 359.803516 50.758491 360.174066 49.512009 360.544615 48.281073 360.915165 47.065842 361.285714 45.866474 361.656264 44.683129 362.026813 43.515966 362.397363 42.365143 362.767912 41.230819 363.138462 40.113154 363.509011 39.012306 363.879560 37.928434 364.250110 36.861697 364.620659 35.812255 364.991209 34.780265 365.361758 33.765888 365.732308 32.769281 366.102857 31.790604 366.473407 30.830016 366.843956 29.887676 367.214505 28.963742 367.585055 28.058374 367.955604 27.171730 368.326154 26.303970 368.696703 25.455252 369.067253 24.625735 369.437802 23.815579 369.808352 23.024941 370.178901 22.253982 370.549451 21.502860 370.920000 20.771734 371.290549 20.060762 371.661099 19.370105 372.031648 18.699920 372.402198 18.050367 372.772747 17.421604 373.143297 16.813791 373.513846 16.227087 373.884396 15.661650 374.254945 15.117639 374.625495 14.595214 374.996044 14.094533 375.366593 13.615755 375.737143 13.159039 376.107692 12.724544 376.478242 12.312429 376.848791 11.922853 377.219341 11.555975 377.589890 11.211953 377.960440 10.890948 378.330989 10.593116 378.701538 10.318619 379.072088 10.067614 379.442637 9.840260 379.813187 9.636717 380.183736 9.457143 380.554286 9.301697 380.924835 9.170538 381.295385 9.063826 381.665934 8.981718 382.036484 8.924375 382.407033 8.891954 382.777582 8.884615 383.148132 8.902517 383.518681 8.945819 383.889231 9.014625 384.259780 9.108820 384.630330 9.228235 385.000879 9.372701 385.371429 9.542050 385.741978 9.736111 386.112527 9.954717 386.483077 10.197696 386.853626 10.464881 387.224176 10.756103 387.594725 11.071191 387.965275 11.409977 388.335824 11.772292 388.706374 12.157967 389.076923 12.566832 389.447473 12.998719 389.818022 13.453457 390.188571 13.930879 390.559121 14.430815 390.929670 14.953095 391.300220 15.497551 391.670769 16.064013 392.041319 16.652312 392.411868 17.262280 392.782418 17.893746 393.152967 18.546543 393.523516 19.220500 393.894066 19.915448 394.264615 20.631219 394.635165 21.367642 395.005714 22.124550 395.376264 22.901773 395.746813 23.699141 396.117363 24.516486 396.487912 25.353639 396.858462 26.210429 397.229011 27.086689 397.599560 27.982248 397.970110 28.896939 398.340659 29.830591 398.711209 30.783035 399.081758 31.754103 399.452308 32.743625 399.822857 33.751432 400.193407 34.777355 400.563956 35.821224 400.934505 36.882872 401.305055 37.962127 401.675604 39.058822 402.046154 40.172787 402.416703 41.303852 402.787253 42.451850 403.157802 43.616610 403.528352 44.797964 403.898901 45.995741 404.269451 47.209775 404.640000 48.439894 405.010549 49.685930 405.381099 50.947713 405.751648 52.225075 406.122198 53.517847 406.492747 54.825859 406.863297 56.148942 407.233846 57.486927 407.604396 58.839644 407.974945 60.206926 408.345495 61.588601 408.716044 62.984502 409.086593 64.394460 409.457143 65.818304 409.827692 67.255866 410.198242 68.706977 410.568791 70.171467 410.939341 71.649168 411.309890 73.139910 411.680440 74.643524 412.050989 76.159841 412.421538 77.688692 412.792088 79.229907 413.162637 80.783318 413.533187 82.348755 413.903736 83.926049 414.274286 85.515032 414.644835 87.115533 415.015385 88.727384 415.385934 90.350415 415.756484 91.984458 416.127033 93.629343 416.497582 95.284901 416.868132 96.950963 417.238681 98.627360 417.609231 100.313923 417.979780 102.010482 418.350330 103.716868 418.720879 105.432912 419.091429 107.158446 419.461978 108.893299 419.832527 110.637303 420.203077 112.390289 420.573626 114.152087 420.944176 115.922528 421.314725 117.701443 421.685275 119.488663 422.055824 121.284019 422.426374 123.087342 422.796923 124.898462 423.167473 126.717210 423.538022 128.543418 423.908571 130.376915 424.279121 132.217534 424.649670 134.065104 425.020220 135.919457 425.390769 137.780423 425.761319 139.647833 426.131868 141.521518 426.502418 143.401310 426.872967 145.287038 427.243516 147.178533 427.614066 149.075628 427.984615 150.978151 428.355165 152.885935 428.725714 154.798809 429.096264 156.716606 429.466813 158.639155 429.837363 160.566288 430.207912 162.497835 430.578462 164.433627 430.949011 166.373496 431.319560 168.317271 431.690110 170.264784 432.060659 172.215866 432.431209 174.170347 432.801758 176.128059 433.172308 178.088832 433.542857 180.052496 433.913407 182.018884 434.283956 183.987825 434.654505 185.959151 435.025055 187.932692 435.395604 189.908280 435.766154 191.885744 436.136703 193.864917 436.507253 195.845628 436.877802 197.827709 437.248352 199.810990 437.618901 201.795303 437.989451 203.780478 438.360000 205.766345 438.730549 207.752737 439.101099 209.739484 439.471648 211.726415 439.842198 213.713364 440.212747 215.700159 440.583297 217.686633 440.953846 219.672615 441.324396 221.657938 441.694945 223.642431 442.065495 225.625925 442.436044 227.608252 442.806593 229.589242 443.177143 231.568726 443.547692 233.546534 443.918242 235.522499 444.288791 237.496450 444.659341 239.468218 445.029890 241.437635 445.400440 243.404530 445.770989 245.368736 446.141538 247.330083 446.512088 249.288401 446.882637 251.243521 447.253187 253.195275 447.623736 255.143493 447.994286 257.088006 448.364835 259.028645 448.735385 260.965240 449.105934 262.897623 449.476484 264.825625 449.847033 266.749075 450.217582 268.667806 450.588132 270.581648 450.958681 272.490431 451.329231 274.393987 451.699780 276.292147 452.070330 278.184741 452.440879 280.071600 452.811429 281.952555 453.181978 283.827437 453.552527 285.696076 453.923077 287.558304 454.293626 289.413952 454.664176 291.262849 455.034725 293.104828 455.405275 294.939719 455.775824 296.767353 456.146374 298.587560 456.516923 300.400171 456.887473 302.205018 457.258022 304.001931 457.628571 305.790741 457.999121 307.571279 458.369670 309.343376 458.740220 311.106862 459.110769 312.861569 459.481319 314.607326 459.851868 316.343966 460.222418 318.071319 460.592967 319.789216 460.963516 321.497487 461.334066 323.195963 461.704615 324.884476 462.075165 326.562857 462.445714 328.230935 462.816264 329.888542 463.186813 331.535508 463.557363 333.171665 463.927912 334.796844 464.298462 336.410875 464.669011 338.013589 465.039560 339.604817 465.410110 341.184389 465.780659 342.752138 466.151209 344.307892 466.521758 345.851484 466.892308 347.382744 467.262857 348.901504 467.633407 350.407593 468.003956 351.900842 468.374505 353.381084 468.745055 354.848147 469.115604 356.301864 469.486154 357.742065 469.856703 359.168581 470.227253 360.581242 470.597802 361.979881 470.968352 363.364326 471.338901 364.734411 471.709451 366.089964 472.080000 367.430817 472.450549 368.756801 472.821099 370.067747 473.191648 371.363485 473.562198 372.643847 473.932747 373.908663 474.303297 375.157764 474.673846 376.390980 475.044396 377.608144 475.414945 378.809085 475.785495 379.993635 476.156044 381.161624 476.526593 382.312926 476.897143 383.447583 477.267692 384.565682 477.638242 385.667308 478.008791 386.752547 478.379341 387.821484 478.749890 388.874205 479.120440 389.910796 479.490989 390.931341 479.861538 391.935928 480.232088 392.924642 480.602637 393.897567 480.973187 394.854790 481.343736 395.796397 481.714286 396.722473 482.084835 397.633103 482.455385 398.528374 482.825934 399.408371 483.196484 400.273179 483.567033 401.122885 483.937582 401.957573 484.308132 402.777330 484.678681 403.582242 485.049231 404.372393 485.419780 405.147869 485.790330 405.908757 486.160879 406.655141 486.531429 407.387108 486.901978 408.104742 487.272527 408.808130 487.643077 409.497358 488.013626 410.172510 488.384176 410.833673 488.754725 411.480932 489.125275 412.114373 489.495824 412.734082 489.866374 413.340143 490.236923 413.932643 490.607473 414.511668 490.978022 415.077302 491.348571 415.629633 491.719121 416.168744 492.089670 416.694722 492.460220 417.207653 492.830769 417.707622 493.201319 418.194715 493.571868 418.669017 493.942418 419.130615 494.312967 419.579593 494.683516 420.016038 495.054066 420.440034 495.424615 420.851668 495.795165 421.251026 496.165714 421.638192 496.536264 422.013253 496.906813 422.376294 497.277363 422.727401 497.647912 423.066659 498.018462 423.394154 498.389011 423.709973 498.759560 424.014199 499.130110 424.306920 499.500659 424.588220 499.871209 424.858185 500.241758 425.116902 500.612308 425.364455 500.982857 425.600930 501.353407 425.826413 501.723956 426.040989 502.094505 426.244745 502.465055 426.437765 502.835604 426.620135 503.206154 426.791942 503.576703 426.953270 503.947253 427.104206 504.317802 427.244834 504.688352 427.375241 505.058901 427.495513 505.429451 427.605734 505.800000 427.705990 506.170549 427.796368 506.541099 427.876952 506.911648 427.947829 507.282198 428.009084 507.652747 428.060802 508.023297 428.103070 508.393846 428.135973 508.764396 428.159596 509.134945 428.174025 509.505495 428.179347 509.876044 428.175645 510.246593 428.163007 510.617143 428.141518 510.987692 428.111263 511.358242 428.072328 511.728791 428.024798 512.099341 427.968760 512.469890 427.904299 512.840440 427.831501 513.210989 427.750450 513.581538 427.661234 513.952088 427.563937 514.322637 427.458645 514.693187 427.345444 515.063736 427.224419 515.434286 427.095656 515.804835 426.959241 516.175385 426.815260 516.545934 426.663797 516.916484 426.504939 517.287033 426.338771 517.657582 426.165378 518.028132 425.984848 518.398681 425.797264 518.769231 425.602713 519.139780 425.401281 519.510330 425.193053 519.880879 424.978114 520.251429 424.756550 520.621978 424.528448 520.992527 424.293892 521.363077 424.052969 521.733626 423.805763 522.104176 423.552360 522.474725 423.292847 522.845275 423.027309 523.215824 422.755831 523.586374 422.478499 523.956923 422.195399 524.327473 421.906616 524.698022 421.612236 525.068571 421.312344 525.439121 421.007027 525.809670 420.696370 526.180220 420.380458 526.550769 420.059377 526.921319 419.733213 527.291868 419.402052 527.662418 419.065978 528.032967 418.725078 528.403516 418.379438 528.774066 418.029142 529.144615 417.674277 529.515165 417.314929 529.885714 416.951182 530.256264 416.583123 530.626813 416.210836 530.997363 415.834409 531.367912 415.453926 531.738462 415.069473 532.109011 414.681136 532.479560 414.289000 532.850110 413.893151 533.220659 413.493674 533.591209 413.090656 533.961758 412.684182 534.332308 412.274337 534.702857 411.861208 535.073407 411.444879 535.443956 411.025436 535.814505 410.602966 536.185055 410.177553 536.555604 409.749284 536.926154 409.318244 537.296703 408.884518 537.667253 408.448192 538.037802 408.009353 538.408352 407.568085 538.778901 407.124474 539.149451 406.678605 539.520000 406.230566 539.890549 405.780440 540.261099 405.328314 540.631648 404.874273 541.002198 404.418404 541.372747 403.960791 541.743297 403.501520 542.113846 403.040677 542.484396 402.578347 542.854945 402.114617 543.225495 401.649572 543.596044 401.183297 543.966593 400.715878 544.337143 400.247400 544.707692 399.777950 545.078242 399.307614 545.448791 398.836475 545.819341 398.364621 546.189890 397.892137 546.560440 397.419108 546.930989 396.945621 547.301538 396.471760 547.672088 395.997612 548.042637 395.523262 548.413187 395.048795 548.783736 394.574298 549.154286 394.099856 549.524835 393.625554 549.895385 393.151479 550.265934 392.677716 550.636484 392.204350 551.007033 391.731467 551.377582 391.259153 551.748132 390.787494 552.118681 390.316575 552.489231 389.846481 552.859780 389.377299 553.230330 388.909113 553.600879 388.442011 553.971429 387.976076 554.341978 387.511396 554.712527 387.048055 555.083077 386.586139 555.453626 386.125734 555.824176 385.666926 556.194725 385.209799 556.565275 384.754441 556.935824 384.300935 557.306374 383.849369 557.676923 383.399827 558.047473 382.952396 558.418022 382.507160 558.788571 382.064206 559.159121 381.623619 559.529670 381.185485 559.900220 380.749890 560.270769 380.316918 560.641319 379.886657 561.011868 379.459190 561.382418 379.034605 561.752967 378.612986 562.123516 378.194420 562.494066 377.778991 562.864615 377.366786 563.235165 376.957890 563.605714 376.552389 563.976264 376.150369 564.346813 375.751914 564.717363 375.357112 565.087912 374.966046 565.458462 374.578804 565.829011 374.195470 566.199560 373.816131 566.570110 373.440872 566.940659 373.069778 567.311209 372.702935 567.681758 372.340429 568.052308 371.982346 568.422857 371.628770 568.793407 371.279789 569.163956 370.935469 569.534505 370.595810 569.905055 370.260793 570.275604 369.930399 570.646154 369.604610 571.016703 369.283407 571.387253 368.966770 571.757802 368.654682 572.128352 368.347124 572.498901 368.044076 572.869451 367.745521 573.240000 367.451439 573.610549 367.161812 573.981099 366.876621 574.351648 366.595847 574.722198 366.319472 575.092747 366.047477 575.463297 365.779843 575.833846 365.516552 576.204396 365.257584 576.574945 365.002921 576.945495 364.752545 577.316044 364.506436 577.686593 364.264576 578.057143 364.026946 578.427692 363.793528 578.798242 363.564302 579.168791 363.339250 579.539341 363.118354 579.909890 362.901594 580.280440 362.688952 580.650989 362.480409 581.021538 362.275947 581.392088 362.075546 581.762637 361.879189 582.133187 361.686855 582.503736 361.498527 582.874286 361.314186 583.244835 361.133813 583.615385 360.957390 583.985934 360.784897 584.356484 360.616316 584.727033 360.451628 585.097582 360.290815 585.468132 360.133857 585.838681 359.980737 586.209231 359.831435 586.579780 359.685933 586.950330 359.544212 587.320879 359.406253 587.691429 359.272037 588.061978 359.141546 588.432527 359.014761 588.803077 358.891664 589.173626 358.772235 589.544176 358.656456 589.914725 358.544309 590.285275 358.435773 590.655824 358.330832 591.026374 358.229466 591.396923 358.131656 591.767473 358.037383 592.138022 357.946630 592.508571 357.859376 592.879121 357.775604 593.249670 357.695295 593.620220 357.618430 593.990769 357.544990 594.361319 357.474957 594.731868 357.408311 595.102418 357.345035 595.472967 357.285109 595.843516 357.228515 596.214066 357.175234 596.584615 357.125247 596.955165 357.078536 597.325714 357.035081 597.696264 356.994865 598.066813 356.957868 598.437363 356.924072 598.807912 356.893458 599.178462 356.866007 599.549011 356.841701 599.919560 356.820520 600.290110 356.802446 600.660659 356.787461 601.031209 356.775546 601.401758 356.766681 601.772308 356.760849 602.142857 356.758030 602.513407 356.758207 602.883956 356.761359 603.254505 356.767468 603.625055 356.776516 603.995604 356.788485 604.366154 356.803354 604.736703 356.821106 605.107253 356.841721 605.477802 356.865182 605.848352 356.891469 606.218901 356.920564 606.589451 356.952447 606.960000 356.987101 607.330549 357.024506 607.701099 357.064644 608.071648 357.107496 608.442198 357.153043 608.812747 357.201267 609.183297 357.252149 609.553846 357.305670 609.924396 357.361811 610.294945 357.420554 610.665495 357.481881 611.036044 357.545771 611.406593 357.612207 611.777143 357.681170 612.147692 357.752641 612.518242 357.826602 612.888791 357.903033 613.259341 357.981916 613.629890 358.063232 614.000440 358.146963 614.370989 358.233090 614.741538 358.321594 615.112088 358.412457 615.482637 358.505659 615.853187 358.601182 616.223736 358.699007 616.594286 358.799116 616.964835 358.901490 617.335385 359.006109 617.705934 359.112957 618.076484 359.222012 618.447033 359.333258 618.817582 359.446675 619.188132 359.562245 619.558681 359.679948 619.929231 359.799766 620.299780 359.921681 620.670330 360.045673 621.040879 360.171725 621.411429 360.299816 621.781978 360.429929 622.152527 360.562045 622.523077 360.696145 622.893626 360.832210 623.264176 360.970222 623.634725 361.110161 624.005275 361.252010 624.375824 361.395750 624.746374 361.541361 625.116923 361.688825 625.487473 361.838123 625.858022 361.989237 626.228571 362.142148 626.599121 362.296837 626.969670 362.453286 627.340220 362.611475 627.710769 362.771386 628.081319 362.933001 628.451868 363.096300 628.822418 363.261265 629.192967 363.427877 629.563516 363.596118 629.934066 363.765968 630.304615 363.937409 630.675165 364.110423 631.045714 364.284990 631.416264 364.461092 631.786813 364.638710 632.157363 364.817825 632.527912 364.998419 632.898462 365.180473 633.269011 365.363969 633.639560 365.548886 634.010110 365.735208 634.380659 365.922915 634.751209 366.111988 635.121758 366.302409 635.492308 366.494159 635.862857 366.687219 636.233407 366.881570 636.603956 367.077194 636.974505 367.274073 637.345055 367.472186 637.715604 367.671517 638.086154 367.872045 638.456703 368.073752 638.827253 368.276620 639.197802 368.480630 639.568352 368.685763 639.938901 368.892000 640.309451 369.099323 640.680000 369.307712 641.050549 369.517150 641.421099 369.727617 641.791648 369.939095 642.162198 370.151565 642.532747 370.365009 642.903297 370.579406 643.273846 370.794740 643.644396 371.010991 644.014945 371.228141 644.385495 371.446170 644.756044 371.665060 645.126593 371.884792 645.497143 372.105348 645.867692 372.326709 646.238242 372.548856 646.608791 372.771770 646.979341 372.995433 647.349890 373.219827 647.720440 373.444931 648.090989 373.670728 648.461538 373.897198 648.832088 374.124324 649.202637 374.352087 649.573187 374.580466 649.943736 374.809445 650.314286 375.039004 650.684835 375.269125 651.055385 375.499788 651.425934 375.730976 651.796484 375.962669 652.167033 376.194848 652.537582 376.427496 652.908132 376.660593 653.278681 376.894120 653.649231 377.128059 654.019780 377.362391 654.390330 377.597097 654.760879 377.832159 655.131429 378.067558 655.501978 378.303275 655.872527 378.539292 656.243077 378.775590 656.613626 379.012149 656.984176 379.248952 657.354725 379.485979 657.725275 379.723212 658.095824 379.960633 658.466374 380.198222 658.836923 380.435960 659.207473 380.673830 659.578022 380.911812 659.948571 381.149888 660.319121 381.388038 660.689670 381.626245 661.060220 381.864489 661.430769 382.102751 661.430769 382.573315" /></g></g><g class="titles"><text class="title plot_title" x="450.0" y="26">Registros processados: 1858 </text><text class="title plot_title" x="450.0" y="52"> </text><text class="title plot_title" x="450.0" y="78">                    Registros pendentes: 0 </text></g><g class="plot overlay" transform="translate(205, 98)"><g class="series serie-0 color-0"><g class="dots"><circle class="dot reactive tooltip-trigger" cx="12.9692307692" cy="153.408843256" r="2.5" /><desc class="value">487</desc><desc class="x ">12.9692307692</desc><desc class="y ">153.408843256</desc></g><g class="dots"><circle class="dot reactive tooltip-trigger" cx="105.606593407" cy="129.410099804" r="2.5" /><desc class="value">538</desc><desc class="x ">105.606593407</desc><desc class="y ">129.410099804</desc></g><g class="dots"><circle class="dot reactive tooltip-trigger" cx="198.243956044" cy="380.220497054" r="2.5" /><desc class="value">5</desc><desc class="x top">198.243956044</desc><desc class="y top">380.220497054</desc></g><g class="dots"><circle class="dot reactive tooltip-trigger" cx="290.881318681" cy="379.749933457" r="2.5" /><desc class="value">6</desc><desc class="x top">290.881318681</desc><desc class="y top">379.749933457</desc></g><g class="dots"><circle class="dot reactive tooltip-trigger" cx="383.518681319" cy="8.945818949" r="2.5" /><desc class="value">794</desc><desc class="x left">383.518681319</desc><desc class="y left">8.945818949</desc></g><g class="dots"><circle class="dot reactive tooltip-trigger" cx="476.156043956" cy="381.161624248" r="2.5" /><desc class="value">3</desc><desc class="x left top">476.156043956</desc><desc class="y left top">381.161624248</desc></g><g class="dots"><circle class="dot reactive tooltip-trigger" cx="568.793406593" cy="371.279788709" r="2.5" /><desc class="value">24</desc><desc class="x left top">568.793406593</desc><desc class="y left top">371.279788709</desc></g><g class="dots"><circle class="dot reactive tooltip-trigger" cx="661.430769231" cy="382.102751442" r="2.5" /><desc class="value">1</desc><desc class="x left top">661.430769231</desc><desc class="y left top">382.102751442</desc></g></g></g><g class="plot text-overlay" transform="translate(205, 98)"><g class="series serie-0 color-0" /></g><g class="plot tooltip-overlay" transform="translate(205, 98)"><g class="tooltip" style="opacity: 0" transform="translate(0 0)"><a><rect class="tooltip-box" height="0" rx="0" ry="0" width="0" /><text class="text"><tspan class="label" /><tspan class="value" /></text></a></g></g><g class="legends" transform="translate(10, 108)"><g class="legend reactive activate-serie" id="activate-serie-0"><rect class="color-0 reactive" height="12" width="12" x="0.0" y="1.0" /><text x="17.0" y="11.2">bko_apoio_6884</text></g></g><g class="legends" transform="translate(890, 108)" /></g></svg>