<?xml version='1.0' encoding='utf-8'?>
<svg xmlns:xlink="http://www.w3.org/1999/xlink" class="pygal-chart" height="600" id="chart-eff5ce27-b745-4338-9c38-f85cee2b21ba" viewBox="0 0 900 600" width="900" xmlns="http://www.w3.org/2000/svg"><!--Generated with pygal 1.7.0 (etree) ©Kozea 2011-2014 on 2015-04-26--><!--http://pygal.org--><!--http://github.com/Kozea/pygal--><defs><style type="text/css">#chart-eff5ce27-b745-4338-9c38-f85cee2b21ba .title{font-family:"monospace";font-size:16px}#chart-eff5ce27-b745-4338-9c38-f85cee2b21ba .legends .legend text{font-family:"monospace";font-size:14px}#chart-eff5ce27-b745-4338-9c38-f85cee2b21ba .axis text{font-family:"monospace";font-size:10px}#chart-eff5ce27-b745-4338-9c38-f85cee2b21ba .axis text.major{font-family:"monospace";font-size:10px}#chart-eff5ce27-b745-4338-9c38-f85cee2b21ba .series text{font-family:"monospace";font-size:8px}#chart-eff5ce27-b745-4338-9c38-f85cee2b21ba .tooltip text{font-family:"monospace";font-size:16px}#chart-eff5ce27-b745-4338-9c38-f85cee2b21ba text.no_data{font-size:64px}
#chart-eff5ce27-b745-4338-9c38-f85cee2b21ba{background-color:black}#chart-eff5ce27-b745-4338-9c38-f85cee2b21ba path,#chart-eff5ce27-b745-4338-9c38-f85cee2b21ba line,#chart-eff5ce27-b745-4338-9c38-f85cee2b21ba rect,#chart-eff5ce27-b745-4338-9c38-f85cee2b21ba circle{-webkit-transition:1s ease-out;-moz-transition:1s ease-out;transition:1s ease-out}#chart-eff5ce27-b745-4338-9c38-f85cee2b21ba .graph &gt; .background{fill:black}#chart-eff5ce27-b745-4338-9c38-f85cee2b21ba .plot &gt; .background{fill:#111}#chart-eff5ce27-b745-4338-9c38-f85cee2b21ba .graph{fill:#999}#chart-eff5ce27-b745-4338-9c38-f85cee2b21ba text.no_data{fill:#eee}#chart-eff5ce27-b745-4338-9c38-f85cee2b21ba .title{fill:#eee}#chart-eff5ce27-b745-4338-9c38-f85cee2b21ba .legends .legend text{fill:#999}#chart-eff5ce27-b745-4338-9c38-f85cee2b21ba .legends .legend:hover text{fill:#eee}#chart-eff5ce27-b745-4338-9c38-f85cee2b21ba .axis .line{stroke:#eee}#chart-eff5ce27-b745-4338-9c38-f85cee2b21ba .axis .guide.line{stroke:#555}#chart-eff5ce27-b745-4338-9c38-f85cee2b21ba .axis .major.line{stroke:#999}#chart-eff5ce27-b745-4338-9c38-f85cee2b21ba .axis text.major{stroke:#eee;fill:#eee}#chart-eff5ce27-b745-4338-9c38-f85cee2b21ba .axis.y .guides:hover .guide.line,#chart-eff5ce27-b745-4338-9c38-f85cee2b21ba .line-graph .axis.x .guides:hover .guide.line,#chart-eff5ce27-b745-4338-9c38-f85cee2b21ba .stackedline-graph .axis.x .guides:hover .guide.line,#chart-eff5ce27-b745-4338-9c38-f85cee2b21ba .xy-graph .axis.x .guides:hover .guide.line{stroke:#eee}#chart-eff5ce27-b745-4338-9c38-f85cee2b21ba .axis .guides:hover text{fill:#eee}#chart-eff5ce27-b745-4338-9c38-f85cee2b21ba .reactive{fill-opacity:.1}#chart-eff5ce27-b745-4338-9c38-f85cee2b21ba .reactive.active,#chart-eff5ce27-b745-4338-9c38-f85cee2b21ba .active .reactive{fill-opacity:.75}#chart-eff5ce27-b745-4338-9c38-f85cee2b21ba .series{stroke-width:1.0;stroke-linejoin:round;stroke-linecap:round;stroke-dasharray:0,0}#chart-eff5ce27-b745-4338-9c38-f85cee2b21ba .series text{fill:#eee}#chart-eff5ce27-b745-4338-9c38-f85cee2b21ba .tooltip rect{fill:#111;stroke:#eee}#chart-eff5ce27-b745-4338-9c38-f85cee2b21ba .tooltip text{fill:#eee}#chart-eff5ce27-b745-4338-9c38-f85cee2b21ba .map-element{fill:#999;stroke:#555 !important;opacity:.9;stroke-width:3;-webkit-transition:250ms;-moz-transition:250ms;-o-transition:250ms;transition:250ms}#chart-eff5ce27-b745-4338-9c38-f85cee2b21ba .map-element:hover{opacity:1;stroke-width:10}#chart-eff5ce27-b745-4338-9c38-f85cee2b21ba .color-0,#chart-eff5ce27-b745-4338-9c38-f85cee2b21ba .color-0 a:visited{stroke:#ff5995;fill:#ff5995}#chart-eff5ce27-b745-4338-9c38-f85cee2b21ba .color-1,#chart-eff5ce27-b745-4338-9c38-f85cee2b21ba .color-1 a:visited{stroke:#b6e354;fill:#b6e354}#chart-eff5ce27-b745-4338-9c38-f85cee2b21ba .color-2,#chart-eff5ce27-b745-4338-9c38-f85cee2b21ba .color-2 a:visited{stroke:#feed6c;fill:#feed6c}#chart-eff5ce27-b745-4338-9c38-f85cee2b21ba .color-3,#chart-eff5ce27-b745-4338-9c38-f85cee2b21ba .color-3 a:visited{stroke:#8cedff;fill:#8cedff}#chart-eff5ce27-b745-4338-9c38-f85cee2b21ba .color-4,#chart-eff5ce27-b745-4338-9c38-f85cee2b21ba .color-4 a:visited{stroke:#9e6ffe;fill:#9e6ffe}#chart-eff5ce27-b745-4338-9c38-f85cee2b21ba .color-5,#chart-eff5ce27-b745-4338-9c38-f85cee2b21ba .color-5 a:visited{stroke:#899ca1;fill:#899ca1}#chart-eff5ce27-b745-4338-9c38-f85cee2b21ba .color-6,#chart-eff5ce27-b745-4338-9c38-f85cee2b21ba .color-6 a:visited{stroke:#f8f8f2;fill:#f8f8f2}#chart-eff5ce27-b745-4338-9c38-f85cee2b21ba .color-7,#chart-eff5ce27-b745-4338-9c38-f85cee2b21ba .color-7 a:visited{stroke:#bf4646;fill:#bf4646}#chart-eff5ce27-b745-4338-9c38-f85cee2b21ba .color-8,#chart-eff5ce27-b745-4338-9c38-f85cee2b21ba .color-8 a:visited{stroke:#516083;fill:#516083}#chart-eff5ce27-b745-4338-9c38-f85cee2b21ba .color-9,#chart-eff5ce27-b745-4338-9c38-f85cee2b21ba .color-9 a:visited{stroke:#f92672;fill:#f92672}#chart-eff5ce27-b745-4338-9c38-f85cee2b21ba .color-10,#chart-eff5ce27-b745-4338-9c38-f85cee2b21ba .color-10 a:visited{stroke:#82b414;fill:#82b414}#chart-eff5ce27-b745-4338-9c38-f85cee2b21ba .color-11,#chart-eff5ce27-b745-4338-9c38-f85cee2b21ba .color-11 a:visited{stroke:#fd971f;fill:#fd971f}#chart-eff5ce27-b745-4338-9c38-f85cee2b21ba .color-12,#chart-eff5ce27-b745-4338-9c38-f85cee2b21ba .color-12 a:visited{stroke:#56c2d6;fill:#56c2d6}#chart-eff5ce27-b745-4338-9c38-f85cee2b21ba .color-13,#chart-eff5ce27-b745-4338-9c38-f85cee2b21ba .color-13 a:visited{stroke:#808384;fill:#808384}#chart-eff5ce27-b745-4338-9c38-f85cee2b21ba .color-14,#chart-eff5ce27-b745-4338-9c38-f85cee2b21ba .color-14 a:visited{stroke:#8c54fe;fill:#8c54fe}#chart-eff5ce27-b745-4338-9c38-f85cee2b21ba .color-15,#chart-eff5ce27-b745-4338-9c38-f85cee2b21ba .color-15 a:visited{stroke:#465457;fill:#465457}
#chart-eff5ce27-b745-4338-9c38-f85cee2b21ba text.no_data{text-anchor:middle}#chart-eff5ce27-b745-4338-9c38-f85cee2b21ba .guide.line{fill-opacity:0}#chart-eff5ce27-b745-4338-9c38-f85cee2b21ba .centered{text-anchor:middle}#chart-eff5ce27-b745-4338-9c38-f85cee2b21ba .title{text-anchor:middle}#chart-eff5ce27-b745-4338-9c38-f85cee2b21ba .legends .legend text{fill-opacity:1}#chart-eff5ce27-b745-4338-9c38-f85cee2b21ba .axis.x text{text-anchor:middle}#chart-eff5ce27-b745-4338-9c38-f85cee2b21ba .axis.x:not(.web) text[transform]{text-anchor:start}#chart-eff5ce27-b745-4338-9c38-f85cee2b21ba .axis.y text{text-anchor:end}#chart-eff5ce27-b745-4338-9c38-f85cee2b21ba .axis.y2 text{text-anchor:start}#chart-eff5ce27-b745-4338-9c38-f85cee2b21ba .axis.y .logarithmic text:not(.major),#chart-eff5ce27-b745-4338-9c38-f85cee2b21ba .axis.y2 .logarithmic text:not(.major){font-size:50%}#chart-eff5ce27-b745-4338-9c38-f85cee2b21ba .axis .guide.line{stroke-dasharray:4,4}#chart-eff5ce27-b745-4338-9c38-f85cee2b21ba .axis .major.guide.line{stroke-dasharray:6,6}#chart-eff5ce27-b745-4338-9c38-f85cee2b21ba .axis text.major{stroke-width:0.5px}#chart-eff5ce27-b745-4338-9c38-f85cee2b21ba .horizontal .axis.y .guide.line,#chart-eff5ce27-b745-4338-9c38-f85cee2b21ba .horizontal .axis.y2 .guide.line,#chart-eff5ce27-b745-4338-9c38-f85cee2b21ba .vertical .axis.x .guide.line{opacity:0}#chart-eff5ce27-b745-4338-9c38-f85cee2b21ba .horizontal .axis.always_show .guide.line,#chart-eff5ce27-b745-4338-9c38-f85cee2b21ba .vertical .axis.always_show .guide.line{opacity:1 !important}#chart-eff5ce27-b745-4338-9c38-f85cee2b21ba .axis.y .guides:hover .guide.line,#chart-eff5ce27-b745-4338-9c38-f85cee2b21ba .axis.y2 .guides:hover .guide.line,#chart-eff5ce27-b745-4338-9c38-f85cee2b21ba .axis.x .guides:hover .guide.line{opacity:1}#chart-eff5ce27-b745-4338-9c38-f85cee2b21ba .axis .guides:hover text{opacity:1}#chart-eff5ce27-b745-4338-9c38-f85cee2b21ba .nofill{fill:none}#chart-eff5ce27-b745-4338-9c38-f85cee2b21ba .subtle-fill{fill-opacity:.2}#chart-eff5ce27-b745-4338-9c38-f85cee2b21ba .dot{stroke-width:1px;fill-opacity:1}#chart-eff5ce27-b745-4338-9c38-f85cee2b21ba .dot.active{stroke-width:5px}#chart-eff5ce27-b745-4338-9c38-f85cee2b21ba .series text{stroke:none}#chart-eff5ce27-b745-4338-9c38-f85cee2b21ba .series text.active{opacity:1}#chart-eff5ce27-b745-4338-9c38-f85cee2b21ba .tooltip rect{fill-opacity:0.8}#chart-eff5ce27-b745-4338-9c38-f85cee2b21ba .tooltip text{fill-opacity:1}#chart-eff5ce27-b745-4338-9c38-f85cee2b21ba .tooltip text tspan.label{fill-opacity:.8}</style><script type="text/javascript">window.config = {"inner_radius": 0, "print_values": false, "tooltip_font_size": 16, "xrange": null, "legend_at_bottom_columns": null, "height": 600, "legend_at_bottom": false, "show_legend": true, "show_dots": true, "explicit_size": true, "legend_font_size": 14, "y_labels_major": null, "show_minor_x_labels": true, "major_label_font_size": 10, "fill": true, "half_pie": false, "x_value_formatter": null, "style": {"opacity": ".1", "foreground": "#999", "plot_background": "#111", "stroke_style": "round", "foreground_light": "#eee", "transition": "1s ease-out", "foreground_dark": "#555", "stroke_dasharray": "0,0", "opacity_hover": ".75", "stroke_width": 1.0, "colors": ["#ff5995", "#b6e354", "#feed6c", "#8cedff", "#9e6ffe", "#899ca1", "#f8f8f2", "#bf4646", "#516083", "#f92672", "#82b414", "#fd971f", "#56c2d6", "#808384", "#8c54fe", "#465457"], "background": "black", "font_family": "monospace"}, "x_label_rotation": 0, "missing_value_fill_truncation": "x", "zero": 0, "margin_right": null, "interpolation_parameters": {}, "x_labels_major": null, "rounded_bars": null, "label_font_size": 10, "show_y_labels": true, "dots_size": 2.5, "show_y_guides": true, "show_minor_y_labels": true, "x_labels": ["!1437", "!1438", "!1439", "!1440", "!1441", "!1442", "!1443", "!1444", "!1445", "!1446", "!1456", "!1457", "!1458", "!1459", "!1500"], "y_title": null, "value_font_size": 8, "order_min": null, "disable_xml_declaration": false, "strict": false, "css": ["style.css", "graph.css"], "mode": null, "show_only_major_dots": false, "human_readable": false, "show_x_guides": false, "spacing": 10, "y_label_rotation": 0, "pretty_print": false, "tooltip_border_radius": 0, "interpolate": "cubic", "js": ["http://kozea.github.io/pygal.js/javascripts/svg.jquery.js", "http://kozea.github.io/pygal.js/javascripts/pygal-tooltips.js"], "y_labels": null, "y_labels_major_every": null, "x_label_format": "%Y-%m-%d %H:%M:%S.%f", "interpolation_precision": 250, "x_title": null, "value_formatter": null, "no_data_font_size": 64, "logarithmic": false, "x_labels_major_count": null, "print_zeroes": false, "no_data_text": "No data", "truncate_legend": null, "x_labels_major_every": null, "title": "Registros processados: 42828 \n \n                    Registros pendentes: 82073 ", "legend_box_size": 12, "no_prefix": false, "stroke": true, "title_font_size": 16, "include_x_axis": false, "range": null, "truncate_label": null, "margin_top": null, "margin_left": null, "y_labels_major_count": null, "margin_bottom": null, "margin": 20, "stack_from_top": false, "width": 900, "show_x_labels": true}</script><script type="text/javascript" xlink:href="http://kozea.github.io/pygal.js/javascripts/svg.jquery.js" /><script type="text/javascript" xlink:href="http://kozea.github.io/pygal.js/javascripts/pygal-tooltips.js" /></defs><title>Registros processados: 42828 
 
                    Registros pendentes: 82073 </title><g class="graph line-graph vertical"><rect class="background" height="600" width="900" x="0" y="0" /><g class="plot" transform="translate(214, 98)"><rect class="background" height="462" width="666.0" x="0" y="0" /><g class="axis y"><g class="guides"><path class="major line" d="M0.000000 434.982787 h666.000000" /><text class="major" x="-5" y="438.482786613">0.0</text></g><g class="guides"><path class="guide line" d="M0.000000 390.570153 h666.000000" /><text class="" x="-5" y="394.070153122">1000.0</text></g><g class="guides"><path class="guide line" d="M0.000000 346.157520 h666.000000" /><text class="" x="-5" y="349.657519631">2000.0</text></g><g class="guides"><path class="guide line" d="M0.000000 301.744886 h666.000000" /><text class="" x="-5" y="305.244886141">3000.0</text></g><g class="guides"><path class="guide line" d="M0.000000 257.332253 h666.000000" /><text class="" x="-5" y="260.83225265">4000.0</text></g><g class="guides"><path class="major guide line" d="M0.000000 212.919619 h666.000000" /><text class="major" x="-5" y="216.419619159">5000.0</text></g><g class="guides"><path class="guide line" d="M0.000000 168.506986 h666.000000" /><text class="" x="-5" y="172.006985668">6000.0</text></g><g class="guides"><path class="guide line" d="M0.000000 124.094352 h666.000000" /><text class="" x="-5" y="127.594352178">7000.0</text></g><g class="guides"><path class="guide line" d="M0.000000 79.681719 h666.000000" /><text class="" x="-5" y="83.181718687">8000.0</text></g><g class="guides"><path class="guide line" d="M0.000000 35.269085 h666.000000" /><text class="" x="-5" y="38.7690851963">9000.0</text></g></g><g class="axis x"><g class="guides"><path class="line" d="M12.807692 0.000000 v462.000000" /><text class="" x="12.8076923077" y="477.0">!1437</text></g><g class="guides"><path class="guide line" d="M58.549451 0.000000 v462.000000" /><text class="" x="58.5494505495" y="477.0">!1438</text></g><g class="guides"><path class="guide line" d="M104.291209 0.000000 v462.000000" /><text class="" x="104.291208791" y="477.0">!1439</text></g><g class="guides"><path class="guide line" d="M150.032967 0.000000 v462.000000" /><text class="" x="150.032967033" y="477.0">!1440</text></g><g class="guides"><path class="guide line" d="M195.774725 0.000000 v462.000000" /><text class="" x="195.774725275" y="477.0">!1441</text></g><g class="guides"><path class="guide line" d="M241.516484 0.000000 v462.000000" /><text class="" x="241.516483516" y="477.0">!1442</text></g><g class="guides"><path class="guide line" d="M287.258242 0.000000 v462.000000" /><text class="" x="287.258241758" y="477.0">!1443</text></g><g class="guides"><path class="guide line" d="M333.000000 0.000000 v462.000000" /><text class="" x="333.0" y="477.0">!1444</text></g><g class="guides"><path class="guide line" d="M378.741758 0.000000 v462.000000" /><text class="" x="378.741758242" y="477.0">!1445</text></g><g class="guides"><path class="guide line" d="M424.483516 0.000000 v462.000000" /><text class="" x="424.483516484" y="477.0">!1446</text></g><g class="guides"><path class="guide line" d="M470.225275 0.000000 v462.000000" /><text class="" x="470.225274725" y="477.0">!1456</text></g><g class="guides"><path class="guide line" d="M515.967033 0.000000 v462.000000" /><text class="" x="515.967032967" y="477.0">!1457</text></g><g class="guides"><path class="guide line" d="M561.708791 0.000000 v462.000000" /><text class="" x="561.708791209" y="477.0">!1458</text></g><g class="guides"><path class="guide line" d="M607.450549 0.000000 v462.000000" /><text class="" x="607.450549451" y="477.0">!1459</text></g><g class="guides"><path class="guide line" d="M653.192308 0.000000 v462.000000" /><text class="" x="653.192307692" y="477.0">!1500</text></g></g><g class="series serie-0 color-0"><path class="line reactive" d="M12.807692 434.982787 L12.807692 432.273616 12.990659 432.252245 13.173626 432.230873 13.356593 432.209500 13.539560 432.188126 13.722527 432.166750 13.905495 432.145371 14.088462 432.123990 14.271429 432.102606 14.454396 432.081217 14.637363 432.059825 14.820330 432.038427 15.003297 432.017025 15.186264 431.995617 15.369231 431.974202 15.552198 431.952781 15.735165 431.931353 15.918132 431.909918 16.101099 431.888474 16.284066 431.867022 16.467033 431.845561 16.650000 431.824090 16.832967 431.802610 17.015934 431.781119 17.198901 431.759617 17.381868 431.738104 17.564835 431.716579 17.747802 431.695042 17.930769 431.673492 18.113736 431.651929 18.296703 431.630352 18.479670 431.608761 18.662637 431.587156 18.845604 431.565535 19.028571 431.543899 19.211538 431.522246 19.394505 431.500577 19.577473 431.478891 19.760440 431.457188 19.943407 431.435466 20.126374 431.413727 20.309341 431.391968 20.492308 431.370190 20.675275 431.348392 20.858242 431.326574 21.041209 431.304734 21.224176 431.282874 21.407143 431.260992 21.590110 431.239088 21.773077 431.217161 21.956044 431.195211 22.139011 431.173237 22.321978 431.151240 22.504945 431.129217 22.687912 431.107170 22.870879 431.085097 23.053846 431.062998 23.236813 431.040873 23.419780 431.018721 23.602747 430.996541 23.785714 430.974333 23.968681 430.952098 24.151648 430.929833 24.334615 430.907539 24.517582 430.885215 24.700549 430.862861 24.883516 430.840477 25.066484 430.818061 25.249451 430.795613 25.432418 430.773134 25.615385 430.750621 25.798352 430.728076 25.981319 430.705497 26.164286 430.682884 26.347253 430.660237 26.530220 430.637555 26.713187 430.614837 26.896154 430.592083 27.079121 430.569293 27.262088 430.546466 27.445055 430.523602 27.628022 430.500700 27.810989 430.477760 27.993956 430.454781 28.176923 430.431763 28.359890 430.408705 28.542857 430.385607 28.725824 430.362468 28.908791 430.339289 29.091758 430.316067 29.274725 430.292804 29.457692 430.269498 29.640659 430.246149 29.823626 430.222757 30.006593 430.199321 30.189560 430.175840 30.372527 430.152314 30.555495 430.128743 30.738462 430.105127 30.921429 430.081464 31.104396 430.057754 31.287363 430.033997 31.470330 430.010192 31.653297 429.986339 31.836264 429.962437 32.019231 429.938487 32.202198 429.914486 32.385165 429.890436 32.568132 429.866335 32.751099 429.842183 32.934066 429.817979 33.117033 429.793724 33.300000 429.769416 33.482967 429.745055 33.665934 429.720641 33.848901 429.696173 34.031868 429.671651 34.214835 429.647074 34.397802 429.622441 34.580769 429.597753 34.763736 429.573009 34.946703 429.548207 35.129670 429.523349 35.312637 429.498433 35.495604 429.473459 35.678571 429.448427 35.861538 429.423335 36.044505 429.398184 36.227473 429.372973 36.410440 429.347701 36.593407 429.322369 36.776374 429.296975 36.959341 429.271519 37.142308 429.246001 37.325275 429.220420 37.508242 429.194775 37.691209 429.169067 37.874176 429.143295 38.057143 429.117458 38.240110 429.091555 38.423077 429.065587 38.606044 429.039553 38.789011 429.013452 38.971978 428.987285 39.154945 428.961049 39.337912 428.934746 39.520879 428.908374 39.703846 428.881933 39.886813 428.855423 40.069780 428.828843 40.252747 428.802192 40.435714 428.775471 40.618681 428.748678 40.801648 428.721813 40.984615 428.694876 41.167582 428.667867 41.350549 428.640784 41.533516 428.613627 41.716484 428.586396 41.899451 428.559091 42.082418 428.531711 42.265385 428.504255 42.448352 428.476722 42.631319 428.449114 42.814286 428.421428 42.997253 428.393665 43.180220 428.365824 43.363187 428.337904 43.546154 428.309906 43.729121 428.281828 43.912088 428.253670 44.095055 428.225433 44.278022 428.197114 44.460989 428.168714 44.643956 428.140232 44.826923 428.111668 45.009890 428.083022 45.192857 428.054292 45.375824 428.025479 45.558791 427.996581 45.741758 427.967599 45.924725 427.938532 46.107692 427.909380 46.290659 427.880141 46.473626 427.850816 46.656593 427.821404 46.839560 427.791905 47.022527 427.762318 47.205495 427.732642 47.388462 427.702878 47.571429 427.673024 47.754396 427.643081 47.937363 427.613047 48.120330 427.582923 48.303297 427.552708 48.486264 427.522401 48.669231 427.492001 48.852198 427.461509 49.035165 427.430925 49.218132 427.400246 49.401099 427.369474 49.584066 427.338607 49.767033 427.307645 49.950000 427.276587 50.132967 427.245434 50.315934 427.214185 50.498901 427.182838 50.681868 427.151394 50.864835 427.119853 51.047802 427.088213 51.230769 427.056475 51.413736 427.024637 51.596703 426.992699 51.779670 426.960662 51.962637 426.928524 52.145604 426.896284 52.328571 426.863943 52.511538 426.831500 52.694505 426.798955 52.877473 426.766307 53.060440 426.733555 53.243407 426.700699 53.426374 426.667739 53.609341 426.634674 53.792308 426.601503 53.975275 426.568227 54.158242 426.534844 54.341209 426.501355 54.524176 426.467758 54.707143 426.434054 54.890110 426.400242 55.073077 426.366320 55.256044 426.332290 55.439011 426.298150 55.621978 426.263900 55.804945 426.229540 55.987912 426.195069 56.170879 426.160486 56.353846 426.125791 56.536813 426.090983 56.719780 426.056063 56.902747 426.021029 57.085714 425.985882 57.268681 425.950620 57.451648 425.915243 57.634615 425.879751 57.817582 425.844144 58.000549 425.808420 58.183516 425.772579 58.366484 425.736622 58.549451 425.700546 58.732418 425.664353 58.915385 425.628042 59.098352 425.591613 59.281319 425.555067 59.464286 425.518403 59.647253 425.481623 59.830220 425.444726 60.013187 425.407712 60.196154 425.370582 60.379121 425.333336 60.562088 425.295974 60.745055 425.258497 60.928022 425.220905 61.110989 425.183197 61.293956 425.145374 61.476923 425.107437 61.659890 425.069385 61.842857 425.031219 62.025824 424.992940 62.208791 424.954546 62.391758 424.916039 62.574725 424.877419 62.757692 424.838685 62.940659 424.799839 63.123626 424.760880 63.306593 424.721809 63.489560 424.682626 63.672527 424.643331 63.855495 424.603924 64.038462 424.564406 64.221429 424.524776 64.404396 424.485036 64.587363 424.445185 64.770330 424.405223 64.953297 424.365152 65.136264 424.324970 65.319231 424.284678 65.502198 424.244277 65.685165 424.203766 65.868132 424.163146 66.051099 424.122417 66.234066 424.081580 66.417033 424.040634 66.600000 423.999580 66.782967 423.958418 66.965934 423.917149 67.148901 423.875772 67.331868 423.834287 67.514835 423.792696 67.697802 423.750997 67.880769 423.709192 68.063736 423.667281 68.246703 423.625263 68.429670 423.583140 68.612637 423.540911 68.795604 423.498577 68.978571 423.456137 69.161538 423.413592 69.344505 423.370943 69.527473 423.328189 69.710440 423.285331 69.893407 423.242369 70.076374 423.199303 70.259341 423.156133 70.442308 423.112860 70.625275 423.069484 70.808242 423.026005 70.991209 422.982423 71.174176 422.938739 71.357143 422.894952 71.540110 422.851064 71.723077 422.807074 71.906044 422.762982 72.089011 422.718789 72.271978 422.674495 72.454945 422.630100 72.637912 422.585605 72.820879 422.541009 73.003846 422.496313 73.186813 422.451517 73.369780 422.406621 73.552747 422.361626 73.735714 422.316532 73.918681 422.271339 74.101648 422.226047 74.284615 422.180656 74.467582 422.135168 74.650549 422.089581 74.833516 422.043896 75.016484 421.998114 75.199451 421.952234 75.382418 421.906257 75.565385 421.860183 75.748352 421.814013 75.931319 421.767746 76.114286 421.721383 76.297253 421.674923 76.480220 421.628369 76.663187 421.581718 76.846154 421.534972 77.029121 421.488131 77.212088 421.441196 77.395055 421.394165 77.578022 421.347041 77.760989 421.299822 77.943956 421.252509 78.126923 421.205103 78.309890 421.157603 78.492857 421.110009 78.675824 421.062323 78.858791 421.014544 79.041758 420.966673 79.224725 420.918709 79.407692 420.870653 79.590659 420.822505 79.773626 420.774266 79.956593 420.725935 80.139560 420.677513 80.322527 420.629001 80.505495 420.580397 80.688462 420.531703 80.871429 420.482919 81.054396 420.434045 81.237363 420.385080 81.420330 420.336027 81.603297 420.286884 81.786264 420.237652 81.969231 420.188331 82.152198 420.138922 82.335165 420.089424 82.518132 420.039838 82.701099 419.990164 82.884066 419.940402 83.067033 419.890553 83.250000 419.840616 83.432967 419.790593 83.615934 419.740483 83.798901 419.690286 83.981868 419.640003 84.164835 419.589634 84.347802 419.539179 84.530769 419.488638 84.713736 419.438012 84.896703 419.387300 85.079670 419.336504 85.262637 419.285623 85.445604 419.234658 85.628571 419.183608 85.811538 419.132475 85.994505 419.081257 86.177473 419.029956 86.360440 418.978572 86.543407 418.927104 86.726374 418.875554 86.909341 418.823921 87.092308 418.772205 87.275275 418.720408 87.458242 418.668528 87.641209 418.616567 87.824176 418.564524 88.007143 418.512400 88.190110 418.460195 88.373077 418.407909 88.556044 418.355543 88.739011 418.303096 88.921978 418.250569 89.104945 418.197963 89.287912 418.145276 89.470879 418.092511 89.653846 418.039666 89.836813 417.986742 90.019780 417.933739 90.202747 417.880658 90.385714 417.827498 90.568681 417.774261 90.751648 417.720946 90.934615 417.667553 91.117582 417.614083 91.300549 417.560535 91.483516 417.506911 91.666484 417.453210 91.849451 417.399433 92.032418 417.345580 92.215385 417.291650 92.398352 417.237645 92.581319 417.183565 92.764286 417.129409 92.947253 417.075178 93.130220 417.020872 93.313187 416.966492 93.496154 416.912037 93.679121 416.857508 93.862088 416.802905 94.045055 416.748229 94.228022 416.693479 94.410989 416.638656 94.593956 416.583760 94.776923 416.528792 94.959890 416.473750 95.142857 416.418637 95.325824 416.363451 95.508791 416.308194 95.691758 416.252865 95.874725 416.197465 96.057692 416.141993 96.240659 416.086451 96.423626 416.030838 96.606593 415.975155 96.789560 415.919401 96.972527 415.863577 97.155495 415.807684 97.338462 415.751721 97.521429 415.695689 97.704396 415.639588 97.887363 415.583418 98.070330 415.527179 98.253297 415.470872 98.436264 415.414497 98.619231 415.358054 98.802198 415.301543 98.985165 415.244965 99.168132 415.188320 99.351099 415.131608 99.534066 415.074829 99.717033 415.017983 99.900000 414.961071 100.082967 414.904093 100.265934 414.847049 100.448901 414.789940 100.631868 414.732765 100.814835 414.675525 100.997802 414.618221 101.180769 414.560851 101.363736 414.503417 101.546703 414.445919 101.729670 414.388357 101.912637 414.330731 102.095604 414.273042 102.278571 414.215289 102.461538 414.157473 102.644505 414.099594 102.827473 414.041653 103.010440 413.983650 103.193407 413.925584 103.376374 413.867456 103.559341 413.809267 103.742308 413.751016 103.925275 413.692704 104.108242 413.634331 104.291209 413.575897 104.474176 413.517403 104.657143 413.458851 104.840110 413.400242 105.023077 413.341580 105.206044 413.282866 105.389011 413.224102 105.571978 413.165290 105.754945 413.106433 105.937912 413.047533 106.120879 412.988593 106.303846 412.929613 106.486813 412.870597 106.669780 412.811546 106.852747 412.752464 107.035714 412.693351 107.218681 412.634210 107.401648 412.575044 107.584615 412.515854 107.767582 412.456643 107.950549 412.397412 108.133516 412.338165 108.316484 412.278903 108.499451 412.219628 108.682418 412.160343 108.865385 412.101049 109.048352 412.041750 109.231319 411.982446 109.414286 411.923141 109.597253 411.863836 109.780220 411.804534 109.963187 411.745237 110.146154 411.685946 110.329121 411.626665 110.512088 411.567395 110.695055 411.508139 110.878022 411.448898 111.060989 411.389675 111.243956 411.330472 111.426923 411.271292 111.609890 411.212135 111.792857 411.153006 111.975824 411.093905 112.158791 411.034835 112.341758 410.975798 112.524725 410.916797 112.707692 410.857832 112.890659 410.798908 113.073626 410.740025 113.256593 410.681187 113.439560 410.622394 113.622527 410.563650 113.805495 410.504956 113.988462 410.446315 114.171429 410.387729 114.354396 410.329200 114.537363 410.270731 114.720330 410.212322 114.903297 410.153978 115.086264 410.095699 115.269231 410.037488 115.452198 409.979347 115.635165 409.921278 115.818132 409.863284 116.001099 409.805367 116.184066 409.747528 116.367033 409.689771 116.550000 409.632096 116.732967 409.574507 116.915934 409.517006 117.098901 409.459594 117.281868 409.402274 117.464835 409.345049 117.647802 409.287919 117.830769 409.230888 118.013736 409.173958 118.196703 409.117130 118.379670 409.060407 118.562637 409.003792 118.745604 408.947285 118.928571 408.890891 119.111538 408.834610 119.294505 408.778445 119.477473 408.722397 119.660440 408.666470 119.843407 408.610666 120.026374 408.554986 120.209341 408.499433 120.392308 408.444008 120.575275 408.388715 120.758242 408.333555 120.941209 408.278531 121.124176 408.223644 121.307143 408.168897 121.490110 408.114292 121.673077 408.059831 121.856044 408.005517 122.039011 407.951351 122.221978 407.897335 122.404945 407.843473 122.587912 407.789766 122.770879 407.736216 122.953846 407.682825 123.136813 407.629596 123.319780 407.576530 123.502747 407.523631 123.685714 407.470900 123.868681 407.418339 124.051648 407.365950 124.234615 407.313736 124.417582 407.261699 124.600549 407.209841 124.783516 407.158164 124.966484 407.106671 125.149451 407.055363 125.332418 407.004243 125.515385 406.953313 125.698352 406.902574 125.881319 406.852030 126.064286 406.801683 126.247253 406.751534 126.430220 406.701586 126.613187 406.651841 126.796154 406.602301 126.979121 406.552968 127.162088 406.503845 127.345055 406.454933 127.528022 406.406235 127.710989 406.357754 127.893956 406.309490 128.076923 406.261447 128.259890 406.213627 128.442857 406.166031 128.625824 406.118662 128.808791 406.071522 128.991758 406.024614 129.174725 405.977939 129.357692 405.931499 129.540659 405.885298 129.723626 405.839336 129.906593 405.793617 130.089560 405.748142 130.272527 405.702913 130.455495 405.657933 130.638462 405.613204 130.821429 405.568728 131.004396 405.524508 131.187363 405.480544 131.370330 405.436840 131.553297 405.393399 131.736264 405.350220 131.919231 405.307309 132.102198 405.264665 132.285165 405.222292 132.468132 405.180191 132.651099 405.138366 132.834066 405.096817 133.017033 405.055547 133.200000 405.014559 133.382967 404.973855 133.565934 404.933436 133.748901 404.893305 133.931868 404.853464 134.114835 404.813915 134.297802 404.774661 134.480769 404.735703 134.663736 404.697045 134.846703 404.658687 135.029670 404.620632 135.212637 404.582882 135.395604 404.545440 135.578571 404.508308 135.761538 404.471488 135.944505 404.434981 136.127473 404.398791 136.310440 404.362919 136.493407 404.327368 136.676374 404.292140 136.859341 404.257236 137.042308 404.222659 137.225275 404.188412 137.408242 404.154496 137.591209 404.120914 137.774176 404.087668 137.957143 404.054759 138.140110 404.022191 138.323077 403.989965 138.506044 403.958084 138.689011 403.926549 138.871978 403.895363 139.054945 403.864529 139.237912 403.834047 139.420879 403.803921 139.603846 403.774152 139.786813 403.744743 139.969780 403.715696 140.152747 403.687014 140.335714 403.658697 140.518681 403.630749 140.701648 403.603172 140.884615 403.575967 141.067582 403.549138 141.250549 403.522685 141.433516 403.496612 141.616484 403.470921 141.799451 403.445613 141.982418 403.420691 142.165385 403.396157 142.348352 403.372014 142.531319 403.348263 142.714286 403.324906 142.897253 403.301946 143.080220 403.279385 143.263187 403.257226 143.446154 403.235469 143.629121 403.214118 143.812088 403.193175 143.995055 403.172642 144.178022 403.152520 144.360989 403.132813 144.543956 403.113522 144.726923 403.094650 144.909890 403.076199 145.092857 403.058170 145.275824 403.040567 145.458791 403.023390 145.641758 403.006644 145.824725 402.990328 146.007692 402.974447 146.190659 402.959002 146.373626 402.943994 146.556593 402.929427 146.739560 402.915303 146.922527 402.901623 147.105495 402.888390 147.288462 402.875606 147.471429 402.863274 147.654396 402.851395 147.837363 402.839971 148.020330 402.829005 148.203297 402.818499 148.386264 402.808455 148.569231 402.798876 148.752198 402.789763 148.935165 402.781118 149.118132 402.772944 149.301099 402.765244 149.484066 402.758018 149.667033 402.751270 149.850000 402.745002 150.032967 402.739215 150.215934 402.733911 150.398901 402.729088 150.581868 402.724745 150.764835 402.720878 150.947802 402.717484 151.130769 402.714562 151.313736 402.712109 151.496703 402.710122 151.679670 402.708599 151.862637 402.707537 152.045604 402.706934 152.228571 402.706787 152.411538 402.707094 152.594505 402.707852 152.777473 402.709059 152.960440 402.710712 153.143407 402.712809 153.326374 402.715347 153.509341 402.718324 153.692308 402.721736 153.875275 402.725583 154.058242 402.729861 154.241209 402.734567 154.424176 402.739699 154.607143 402.745255 154.790110 402.751232 154.973077 402.757628 155.156044 402.764440 155.339011 402.771665 155.521978 402.779301 155.704945 402.787346 155.887912 402.795797 156.070879 402.804652 156.253846 402.813907 156.436813 402.823561 156.619780 402.833611 156.802747 402.844054 156.985714 402.854889 157.168681 402.866111 157.351648 402.877720 157.534615 402.889712 157.717582 402.902086 157.900549 402.914837 158.083516 402.927964 158.266484 402.941465 158.449451 402.955337 158.632418 402.969577 158.815385 402.984183 158.998352 402.999152 159.181319 403.014482 159.364286 403.030170 159.547253 403.046214 159.730220 403.062612 159.913187 403.079360 160.096154 403.096456 160.279121 403.113898 160.462088 403.131684 160.645055 403.149810 160.828022 403.168274 161.010989 403.187075 161.193956 403.206208 161.376923 403.225672 161.559890 403.245464 161.742857 403.265582 161.925824 403.286023 162.108791 403.306784 162.291758 403.327864 162.474725 403.349260 162.657692 403.370968 162.840659 403.392987 163.023626 403.415314 163.206593 403.437947 163.389560 403.460883 163.572527 403.484119 163.755495 403.507654 163.938462 403.531483 164.121429 403.555606 164.304396 403.580020 164.487363 403.604721 164.670330 403.629708 164.853297 403.654978 165.036264 403.680528 165.219231 403.706356 165.402198 403.732460 165.585165 403.758837 165.768132 403.785484 165.951099 403.812399 166.134066 403.839579 166.317033 403.867022 166.500000 403.894726 166.682967 403.922687 166.865934 403.950904 167.048901 403.979374 167.231868 404.008094 167.414835 404.037061 167.597802 404.066274 167.780769 404.095730 167.963736 404.125426 168.146703 404.155360 168.329670 404.185529 168.512637 404.215931 168.695604 404.246563 168.878571 404.277423 169.061538 404.308508 169.244505 404.339816 169.427473 404.371343 169.610440 404.403089 169.793407 404.435050 169.976374 404.467223 170.159341 404.499606 170.342308 404.532198 170.525275 404.564994 170.708242 404.597993 170.891209 404.631192 171.074176 404.664588 171.257143 404.698180 171.440110 404.731964 171.623077 404.765938 171.806044 404.800100 171.989011 404.834446 172.171978 404.868976 172.354945 404.903685 172.537912 404.938572 172.720879 404.973633 172.903846 405.008868 173.086813 405.044272 173.269780 405.079843 173.452747 405.115580 173.635714 405.151479 173.818681 405.187538 174.001648 405.223754 174.184615 405.260125 174.367582 405.296648 174.550549 405.333322 174.733516 405.370142 174.916484 405.407108 175.099451 405.444216 175.282418 405.481464 175.465385 405.518849 175.648352 405.556368 175.831319 405.594020 176.014286 405.631802 176.197253 405.669711 176.380220 405.707745 176.563187 405.745901 176.746154 405.784177 176.929121 405.822570 177.112088 405.861078 177.295055 405.899698 177.478022 405.938428 177.660989 405.977264 177.843956 406.016206 178.026923 406.055249 178.209890 406.094393 178.392857 406.133633 178.575824 406.172968 178.758791 406.212395 178.941758 406.251912 179.124725 406.291515 179.307692 406.331204 179.490659 406.370974 179.673626 406.410824 179.856593 406.450751 180.039560 406.490752 180.222527 406.530826 180.405495 406.570969 180.588462 406.611179 180.771429 406.651453 180.954396 406.691789 181.137363 406.732185 181.320330 406.772638 181.503297 406.813145 181.686264 406.853704 181.869231 406.894313 182.052198 406.934968 182.235165 406.975668 182.418132 407.016410 182.601099 407.057191 182.784066 407.098008 182.967033 407.138861 183.150000 407.179745 183.332967 407.220658 183.515934 407.261598 183.698901 407.302563 183.881868 407.343549 184.064835 407.384554 184.247802 407.425577 184.430769 407.466613 184.613736 407.507661 184.796703 407.548719 184.979670 407.589783 185.162637 407.630851 185.345604 407.671921 185.528571 407.712991 185.711538 407.754056 185.894505 407.795117 186.077473 407.836168 186.260440 407.877209 186.443407 407.918236 186.626374 407.959248 186.809341 408.000241 186.992308 408.041213 187.175275 408.082162 187.358242 408.123085 187.541209 408.163979 187.724176 408.204843 187.907143 408.245673 188.090110 408.286467 188.273077 408.327222 188.456044 408.367937 188.639011 408.408608 188.821978 408.449233 189.004945 408.489809 189.187912 408.530335 189.370879 408.570807 189.553846 408.611222 189.736813 408.651579 189.919780 408.691875 190.102747 408.732108 190.285714 408.772274 190.468681 408.812372 190.651648 408.852398 190.834615 408.892351 191.017582 408.932228 191.200549 408.972026 191.383516 409.011743 191.566484 409.051376 191.749451 409.090923 191.932418 409.130381 192.115385 409.169748 192.298352 409.209022 192.481319 409.248199 192.664286 409.287277 192.847253 409.326254 193.030220 409.365127 193.213187 409.403894 193.396154 409.442552 193.579121 409.481098 193.762088 409.519531 193.945055 409.557848 194.128022 409.596045 194.310989 409.634122 194.493956 409.672074 194.676923 409.709900 194.859890 409.747597 195.042857 409.785163 195.225824 409.822595 195.408791 409.859890 195.591758 409.897046 195.774725 409.934061 195.957692 409.970932 196.140659 410.007658 196.323626 410.044238 196.506593 410.080670 196.689560 410.116954 196.872527 410.153088 197.055495 410.189070 197.238462 410.224901 197.421429 410.260578 197.604396 410.296101 197.787363 410.331468 197.970330 410.366678 198.153297 410.401730 198.336264 410.436623 198.519231 410.471356 198.702198 410.505927 198.885165 410.540335 199.068132 410.574579 199.251099 410.608659 199.434066 410.642572 199.617033 410.676318 199.800000 410.709895 199.982967 410.743303 200.165934 410.776539 200.348901 410.809604 200.531868 410.842495 200.714835 410.875212 200.897802 410.907753 201.080769 410.940118 201.263736 410.972304 201.446703 411.004312 201.629670 411.036139 201.812637 411.067785 201.995604 411.099248 202.178571 411.130527 202.361538 411.161622 202.544505 411.192530 202.727473 411.223251 202.910440 411.253784 203.093407 411.284127 203.276374 411.314279 203.459341 411.344239 203.642308 411.374006 203.825275 411.403579 204.008242 411.432956 204.191209 411.462136 204.374176 411.491119 204.557143 411.519903 204.740110 411.548486 204.923077 411.576868 205.106044 411.605048 205.289011 411.633024 205.471978 411.660795 205.654945 411.688360 205.837912 411.715718 206.020879 411.742868 206.203846 411.769808 206.386813 411.796537 206.569780 411.823054 206.752747 411.849359 206.935714 411.875449 207.118681 411.901323 207.301648 411.926982 207.484615 411.952422 207.667582 411.977644 207.850549 412.002645 208.033516 412.027425 208.216484 412.051983 208.399451 412.076317 208.582418 412.100427 208.765385 412.124310 208.948352 412.147967 209.131319 412.171395 209.314286 412.194593 209.497253 412.217561 209.680220 412.240298 209.863187 412.262801 210.046154 412.285070 210.229121 412.307104 210.412088 412.328902 210.595055 412.350461 210.778022 412.371782 210.960989 412.392864 211.143956 412.413703 211.326923 412.434301 211.509890 412.454655 211.692857 412.474764 211.875824 412.494628 212.058791 412.514245 212.241758 412.533613 212.424725 412.552732 212.607692 412.571600 212.790659 412.590217 212.973626 412.608581 213.156593 412.626691 213.339560 412.644546 213.522527 412.662144 213.705495 412.679485 213.888462 412.696567 214.071429 412.713389 214.254396 412.729951 214.437363 412.746250 214.620330 412.762285 214.803297 412.778056 214.986264 412.793561 215.169231 412.808800 215.352198 412.823770 215.535165 412.838471 215.718132 412.852902 215.901099 412.867061 216.084066 412.880947 216.267033 412.894559 216.450000 412.907896 216.632967 412.920957 216.815934 412.933741 216.998901 412.946246 217.181868 412.958471 217.364835 412.970415 217.547802 412.982077 217.730769 412.993456 217.913736 413.004550 218.096703 413.015358 218.279670 413.025880 218.462637 413.036114 218.645604 413.046059 218.828571 413.055713 219.011538 413.065076 219.194505 413.074146 219.377473 413.082922 219.560440 413.091403 219.743407 413.099589 219.926374 413.107476 220.109341 413.115066 220.292308 413.122355 220.475275 413.129344 220.658242 413.136031 220.841209 413.142414 221.024176 413.148493 221.207143 413.154267 221.390110 413.159734 221.573077 413.164893 221.756044 413.169742 221.939011 413.174282 222.121978 413.178510 222.304945 413.182426 222.487912 413.186028 222.670879 413.189315 222.853846 413.192286 223.036813 413.194940 223.219780 413.197275 223.402747 413.199291 223.585714 413.200986 223.768681 413.202359 223.951648 413.203409 224.134615 413.204134 224.317582 413.204534 224.500549 413.204608 224.683516 413.204354 224.866484 413.203771 225.049451 413.202857 225.232418 413.201613 225.415385 413.200035 225.598352 413.198125 225.781319 413.195879 225.964286 413.193298 226.147253 413.190379 226.330220 413.187122 226.513187 413.183525 226.696154 413.179588 226.879121 413.175309 227.062088 413.170687 227.245055 413.165721 227.428022 413.160409 227.610989 413.154751 227.793956 413.148745 227.976923 413.142391 228.159890 413.135686 228.342857 413.128630 228.525824 413.121222 228.708791 413.113460 228.891758 413.105343 229.074725 413.096871 229.257692 413.088042 229.440659 413.078854 229.623626 413.069307 229.806593 413.059399 229.989560 413.049130 230.172527 413.038497 230.355495 413.027501 230.538462 413.016139 230.721429 413.004411 230.904396 412.992315 231.087363 412.979851 231.270330 412.967016 231.453297 412.953811 231.636264 412.940233 231.819231 412.926282 232.002198 412.911956 232.185165 412.897254 232.368132 412.882176 232.551099 412.866719 232.734066 412.850883 232.917033 412.834666 233.100000 412.818068 233.282967 412.801087 233.465934 412.783722 233.648901 412.765972 233.831868 412.747835 234.014835 412.729311 234.197802 412.710399 234.380769 412.691096 234.563736 412.671403 234.746703 412.651317 234.929670 412.630838 235.112637 412.609964 235.295604 412.588695 235.478571 412.567029 235.661538 412.544965 235.844505 412.522501 236.027473 412.499638 236.210440 412.476372 236.393407 412.452704 236.576374 412.428632 236.759341 412.404155 236.942308 412.379272 237.125275 412.353982 237.308242 412.328282 237.491209 412.302173 237.674176 412.275654 237.857143 412.248722 238.040110 412.221376 238.223077 412.193617 238.406044 412.165442 238.589011 412.136850 238.771978 412.107840 238.954945 412.078411 239.137912 412.048561 239.320879 412.018290 239.503846 411.987597 239.686813 411.956480 239.869780 411.924938 240.052747 411.892969 240.235714 411.860574 240.418681 411.827750 240.601648 411.794496 240.784615 411.760811 240.967582 411.726695 241.150549 411.692145 241.333516 411.657161 241.516484 411.621741 241.699451 411.585887 241.882418 411.549608 242.065385 411.512917 242.248352 411.475824 242.431319 411.438341 242.614286 411.400482 242.797253 411.362256 242.980220 411.323678 243.163187 411.284757 243.346154 411.245506 243.529121 411.205937 243.712088 411.166061 243.895055 411.125892 244.078022 411.085439 244.260989 411.044716 244.443956 411.003734 244.626923 410.962505 244.809890 410.921040 244.992857 410.879353 245.175824 410.837453 245.358791 410.795354 245.541758 410.753068 245.724725 410.710605 245.907692 410.667978 246.090659 410.625199 246.273626 410.582280 246.456593 410.539232 246.639560 410.496067 246.822527 410.452797 247.005495 410.409434 247.188462 410.365991 247.371429 410.322478 247.554396 410.278907 247.737363 410.235291 247.920330 410.191641 248.103297 410.147969 248.286264 410.104287 248.469231 410.060607 248.652198 410.016941 248.835165 409.973300 249.018132 409.929696 249.201099 409.886142 249.384066 409.842648 249.567033 409.799228 249.750000 409.755892 249.932967 409.712653 250.115934 409.669522 250.298901 409.626512 250.481868 409.583634 250.664835 409.540900 250.847802 409.498321 251.030769 409.455910 251.213736 409.413679 251.396703 409.371640 251.579670 409.329803 251.762637 409.288182 251.945604 409.246787 252.128571 409.205632 252.311538 409.164727 252.494505 409.124084 252.677473 409.083716 252.860440 409.043634 253.043407 409.003851 253.226374 408.964377 253.409341 408.925224 253.592308 408.886406 253.775275 408.847933 253.958242 408.809817 254.141209 408.772070 254.324176 408.734705 254.507143 408.697732 254.690110 408.661164 254.873077 408.625012 255.056044 408.589289 255.239011 408.554007 255.421978 408.519176 255.604945 408.484809 255.787912 408.450918 255.970879 408.417515 256.153846 408.384611 256.336813 408.352219 256.519780 408.320350 256.702747 408.289015 256.885714 408.258228 257.068681 408.228000 257.251648 408.198342 257.434615 408.169267 257.617582 408.140786 257.800549 408.112911 257.983516 408.085654 258.166484 408.059027 258.349451 408.033042 258.532418 408.007710 258.715385 407.983044 258.898352 407.959055 259.081319 407.935755 259.264286 407.913156 259.447253 407.891270 259.630220 407.870109 259.813187 407.849684 259.996154 407.830008 260.179121 407.811091 260.362088 407.792947 260.545055 407.775587 260.728022 407.759022 260.910989 407.743266 261.093956 407.728328 261.276923 407.714222 261.459890 407.700959 261.642857 407.688551 261.825824 407.677010 262.008791 407.666348 262.191758 407.656577 262.374725 407.647707 262.557692 407.639752 262.740659 407.632724 262.923626 407.626633 263.106593 407.621492 263.289560 407.617313 263.472527 407.614107 263.655495 407.611886 263.838462 407.610663 264.021429 407.610449 264.204396 407.611256 264.387363 407.613096 264.570330 407.615980 264.753297 407.619921 264.936264 407.624930 265.119231 407.631019 265.302198 407.638201 265.485165 407.646486 265.668132 407.655887 265.851099 407.666415 266.034066 407.678083 266.217033 407.690903 266.400000 407.704885 266.582967 407.720043 266.765934 407.736387 266.948901 407.753930 267.131868 407.772683 267.314835 407.792659 267.497802 407.813870 267.680769 407.836326 267.863736 407.860040 268.046703 407.885024 268.229670 407.911290 268.412637 407.938849 268.595604 407.967713 268.778571 407.997895 268.961538 408.029406 269.144505 408.062257 269.327473 408.096462 269.510440 408.132031 269.693407 408.168976 269.876374 408.207310 270.059341 408.247044 270.242308 408.288190 270.425275 408.330759 270.608242 408.374765 270.791209 408.420218 270.974176 408.467130 271.157143 408.515514 271.340110 408.565381 271.523077 408.616742 271.706044 408.669611 271.889011 408.723998 272.071978 408.779916 272.254945 408.837376 272.437912 408.896390 272.620879 408.956970 272.803846 409.019129 272.986813 409.082877 273.169780 409.148226 273.352747 409.215189 273.535714 409.283778 273.718681 409.354003 273.901648 409.425878 274.084615 409.499413 274.267582 409.574621 274.450549 409.651514 274.633516 409.730103 274.816484 409.810400 274.999451 409.892418 275.182418 409.976167 275.365385 410.061660 275.548352 410.148909 275.731319 410.237926 275.914286 410.328722 276.097253 410.421309 276.280220 410.515699 276.463187 410.611904 276.646154 410.709935 276.829121 410.809806 277.012088 410.911527 277.195055 411.015110 277.378022 411.120567 277.560989 411.227911 277.743956 411.337152 277.926923 411.448303 278.109890 411.561375 278.292857 411.676381 278.475824 411.793333 278.658791 411.912241 278.841758 412.033118 279.024725 412.155976 279.207692 412.280827 279.390659 412.407683 279.573626 412.536554 279.756593 412.667454 279.939560 412.800394 280.122527 412.935386 280.305495 413.072442 280.488462 413.211574 280.671429 413.352792 280.854396 413.496111 281.037363 413.641540 281.220330 413.789092 281.403297 413.938780 281.586264 414.090614 281.769231 414.244606 281.952198 414.400769 282.135165 414.559115 282.318132 414.719654 282.501099 414.882400 282.684066 415.047363 282.867033 415.214556 283.050000 415.383990 283.232967 415.555678 283.415934 415.729631 283.598901 415.905862 283.781868 416.084381 283.964835 416.265201 284.147802 416.448333 284.330769 416.633790 284.513736 416.821584 284.696703 417.011725 284.879670 417.204227 285.062637 417.399100 285.245604 417.596358 285.428571 417.796011 285.611538 417.998071 285.794505 418.202550 285.977473 418.409461 286.160440 418.618815 286.343407 418.830624 286.526374 419.044899 286.709341 419.261653 286.892308 419.480897 287.075275 419.702643 287.258242 419.926904 287.441209 420.153680 287.624176 420.382930 287.807143 420.614602 287.990110 420.848646 288.173077 421.085008 288.356044 421.323638 288.539011 421.564483 288.721978 421.807492 288.904945 422.052612 289.087912 422.299794 289.270879 422.548983 289.453846 422.800130 289.636813 423.053181 289.819780 423.308086 290.002747 423.564793 290.185714 423.823249 290.368681 424.083404 290.551648 424.345205 290.734615 424.608600 290.917582 424.873538 291.100549 425.139968 291.283516 425.407837 291.466484 425.677093 291.649451 425.947686 291.832418 426.219563 292.015385 426.492672 292.198352 426.766962 292.381319 427.042381 292.564286 427.318877 292.747253 427.596398 292.930220 427.874894 293.113187 428.154311 293.296154 428.434599 293.479121 428.715705 293.662088 428.997578 293.845055 429.280166 294.028022 429.563417 294.210989 429.847280 294.393956 430.131703 294.576923 430.416634 294.759890 430.702021 294.942857 430.987813 295.125824 431.273958 295.308791 431.560404 295.491758 431.847099 295.674725 432.133992 295.857692 432.421031 296.040659 432.708164 296.223626 432.995339 296.406593 433.282506 296.589560 433.569611 296.772527 433.856603 296.955495 434.143431 297.138462 434.430043 297.321429 434.716386 297.504396 435.002410 297.687363 435.288062 297.870330 435.573292 298.053297 435.858046 298.236264 436.142273 298.419231 436.425922 298.602198 436.708941 298.785165 436.991278 298.968132 437.272881 299.151099 437.553699 299.334066 437.833680 299.517033 438.112772 299.700000 438.390923 299.882967 438.668082 300.065934 438.944197 300.248901 439.219216 300.431868 439.493088 300.614835 439.765760 300.797802 440.037181 300.980769 440.307299 301.163736 440.576063 301.346703 440.843420 301.529670 441.109320 301.712637 441.373710 301.895604 441.636538 302.078571 441.897753 302.261538 442.157303 302.444505 442.415136 302.627473 442.671201 302.810440 442.925446 302.993407 443.177818 303.176374 443.428267 303.359341 443.676741 303.542308 443.923188 303.725275 444.167555 303.908242 444.409792 304.091209 444.649847 304.274176 444.887667 304.457143 445.123202 304.640110 445.356399 304.823077 445.587207 305.006044 445.815574 305.189011 446.041448 305.371978 446.264777 305.554945 446.485510 305.737912 446.703595 305.920879 446.918980 306.103846 447.131614 306.286813 447.341444 306.469780 447.548420 306.652747 447.752489 306.835714 447.953599 307.018681 448.151699 307.201648 448.346737 307.384615 448.538662 307.567582 448.727421 307.750549 448.912963 307.933516 449.095236 308.116484 449.274188 308.299451 449.449768 308.482418 449.621924 308.665385 449.790604 308.848352 449.955757 309.031319 450.117330 309.214286 450.275272 309.397253 450.429531 309.580220 450.580056 309.763187 450.726794 309.946154 450.869694 310.129121 451.008705 310.312088 451.143774 310.495055 451.274849 310.678022 451.401880 310.860989 451.524814 311.043956 451.643599 311.226923 451.758185 311.409890 451.868518 311.592857 451.974548 311.775824 452.076222 311.958791 452.173489 312.141758 452.266297 312.324725 452.354594 312.507692 452.438329 312.690659 452.517450 312.873626 452.591905 313.056593 452.661643 313.239560 452.726611 313.422527 452.786758 313.605495 452.842032 313.788462 452.892382 313.971429 452.937755 314.154396 452.978100 314.337363 453.013365 314.520330 453.043499 314.703297 453.068450 314.886264 453.088165 315.069231 453.102594 315.252198 453.111685 315.435165 453.115385 315.618132 453.113643 315.801099 453.106407 315.984066 453.093626 316.167033 453.075248 316.350000 453.051221 316.532967 453.021493 316.715934 452.986013 316.898901 452.944728 317.081868 452.897588 317.264835 452.844540 317.447802 452.785533 317.630769 452.720514 317.813736 452.649433 317.996703 452.572237 318.179670 452.488875 318.362637 452.399295 318.545604 452.303445 318.728571 452.201273 318.911538 452.092729 319.094505 451.977759 319.277473 451.856312 319.460440 451.728337 319.643407 451.593782 319.826374 451.452594 320.009341 451.304723 320.192308 451.150116 320.375275 450.988723 320.558242 450.820490 320.741209 450.645367 320.924176 450.463301 321.107143 450.274241 321.290110 450.078135 321.473077 449.874931 321.656044 449.664578 321.839011 449.447024 322.021978 449.222217 322.204945 448.990106 322.387912 448.750638 322.570879 448.503762 322.753846 448.249426 322.936813 447.987579 323.119780 447.718168 323.302747 447.441143 323.485714 447.156450 323.668681 446.864039 323.851648 446.563858 324.034615 446.255855 324.217582 445.939978 324.400549 445.616176 324.583516 445.284396 324.766484 444.944587 324.949451 444.596698 325.132418 444.240676 325.315385 443.876470 325.498352 443.504028 325.681319 443.123299 325.864286 442.734230 326.047253 442.336770 326.230220 441.930867 326.413187 441.516470 326.596154 441.093526 326.779121 440.661984 326.962088 440.221792 327.145055 439.772899 327.328022 439.315252 327.510989 438.848800 327.693956 438.373492 327.876923 437.889274 328.059890 437.396097 328.242857 436.893908 328.425824 436.382655 328.608791 435.862286 328.791758 435.332750 328.974725 434.793995 329.157692 434.245970 329.340659 433.688622 329.523626 433.121900 329.706593 432.545752 329.889560 431.960126 330.072527 431.364971 330.255495 430.760234 330.438462 430.145865 330.621429 429.521811 330.804396 428.888021 330.987363 428.244443 331.170330 427.591024 331.353297 426.927715 331.536264 426.254462 331.719231 425.571213 331.902198 424.877918 332.085165 424.174525 332.268132 423.460981 332.451099 422.737235 332.634066 422.003236 332.817033 421.258930 333.000000 420.504268 333.182967 419.739217 333.365934 418.963830 333.548901 418.178179 333.731868 417.382335 333.914835 416.576372 334.097802 415.760362 334.280769 414.934377 334.463736 414.098490 334.646703 413.252773 334.829670 412.397298 335.012637 411.532137 335.195604 410.657364 335.378571 409.773050 335.561538 408.879268 335.744505 407.976090 335.927473 407.063589 336.110440 406.141837 336.293407 405.210905 336.476374 404.270868 336.659341 403.321796 336.842308 402.363763 337.025275 401.396841 337.208242 400.421101 337.391209 399.436617 337.574176 398.443461 337.757143 397.441705 337.940110 396.431422 338.123077 395.412684 338.306044 394.385563 338.489011 393.350131 338.671978 392.306462 338.854945 391.254627 339.037912 390.194699 339.220879 389.126750 339.403846 388.050852 339.586813 386.967079 339.769780 385.875502 339.952747 384.776193 340.135714 383.669225 340.318681 382.554671 340.501648 381.432602 340.684615 380.303091 340.867582 379.166211 341.050549 378.022034 341.233516 376.870632 341.416484 375.712077 341.599451 374.546442 341.782418 373.373800 341.965385 372.194222 342.148352 371.007781 342.331319 369.814550 342.514286 368.614601 342.697253 367.408005 342.880220 366.194836 343.063187 364.975166 343.246154 363.749067 343.429121 362.516612 343.612088 361.277873 343.795055 360.032922 343.978022 358.781832 344.160989 357.524674 344.343956 356.261523 344.526923 354.992449 344.709890 353.717525 344.892857 352.436824 345.075824 351.150417 345.258791 349.858378 345.441758 348.560779 345.624725 347.257691 345.807692 345.949188 345.990659 344.635342 346.173626 343.316225 346.356593 341.991909 346.539560 340.662467 346.722527 339.327972 346.905495 337.988495 347.088462 336.644109 347.271429 335.294886 347.454396 333.940899 347.637363 332.582220 347.820330 331.218921 348.003297 329.851075 348.186264 328.478755 348.369231 327.102031 348.552198 325.720978 348.735165 324.335667 348.918132 322.946171 349.101099 321.552561 349.284066 320.154911 349.467033 318.753293 349.650000 317.347779 349.832967 315.938441 350.015934 314.525352 350.198901 313.108584 350.381868 311.688210 350.564835 310.264302 350.747802 308.836932 350.930769 307.406173 351.113736 305.972097 351.296703 304.534776 351.479670 303.094283 351.662637 301.650690 351.845604 300.204069 352.028571 298.754494 352.211538 297.302036 352.394505 295.846767 352.577473 294.388760 352.760440 292.928088 352.943407 291.464822 353.126374 289.999036 353.309341 288.530801 353.492308 287.060189 353.675275 285.587274 353.858242 284.112128 354.041209 282.634822 354.224176 281.155430 354.407143 279.674023 354.590110 278.190674 354.773077 276.705456 354.956044 275.218440 355.139011 273.729700 355.321978 272.239307 355.504945 270.747334 355.687912 269.253853 355.870879 267.758937 356.053846 266.262657 356.236813 264.765087 356.419780 263.266299 356.602747 261.766365 356.785714 260.265357 356.968681 258.763348 357.151648 257.260410 357.334615 255.756616 357.517582 254.252038 357.700549 252.746748 357.883516 251.240818 358.066484 249.734322 358.249451 248.227330 358.432418 246.719917 358.615385 245.212154 358.798352 243.704113 358.981319 242.195867 359.164286 240.687488 359.347253 239.179049 359.530220 237.670622 359.713187 236.162279 359.896154 234.654093 360.079121 233.146136 360.262088 231.638480 360.445055 230.131198 360.628022 228.624362 360.810989 227.118045 360.993956 225.612318 361.176923 224.107255 361.359890 222.602928 361.542857 221.099408 361.725824 219.596769 361.908791 218.095082 362.091758 216.594421 362.274725 215.094857 362.457692 213.596463 362.640659 212.099311 362.823626 210.603473 363.006593 209.109023 363.189560 207.616032 363.372527 206.124572 363.555495 204.634717 363.738462 203.146538 363.921429 201.660108 364.104396 200.175498 364.287363 198.692783 364.470330 197.212033 364.653297 195.733321 364.836264 194.256720 365.019231 192.782303 365.202198 191.310140 365.385165 189.840305 365.568132 188.372870 365.751099 186.907908 365.934066 185.445490 366.117033 183.985690 366.300000 182.528579 366.482967 181.074230 366.665934 179.622715 366.848901 178.174107 367.031868 176.728478 367.214835 175.285900 367.397802 173.846446 367.580769 172.410189 367.763736 170.977199 367.946703 169.547551 368.129670 168.121316 368.312637 166.698566 368.495604 165.279374 368.678571 163.863813 368.861538 162.451954 369.044505 161.043871 369.227473 159.639635 369.410440 158.239318 369.593407 156.842994 369.776374 155.450734 369.959341 154.062612 370.142308 152.678698 370.325275 151.299066 370.508242 149.923788 370.691209 148.552937 370.874176 147.186584 371.057143 145.824802 371.240110 144.467664 371.423077 143.115241 371.606044 141.767607 371.789011 140.424834 371.971978 139.086993 372.154945 137.754158 372.337912 136.426400 372.520879 135.103792 372.703846 133.786407 372.886813 132.474316 373.069780 131.167593 373.252747 129.866309 373.435714 128.570537 373.618681 127.280350 373.801648 125.995819 373.984615 124.717016 374.167582 123.444016 374.350549 122.176889 374.533516 120.915708 374.716484 119.660545 374.899451 118.411474 375.082418 117.168565 375.265385 115.931892 375.448352 114.701527 375.631319 113.477542 375.814286 112.260010 375.997253 111.049003 376.180220 109.844594 376.363187 108.646854 376.546154 107.455856 376.729121 106.271673 376.912088 105.094376 377.095055 103.924039 377.278022 102.760734 377.460989 101.604532 377.643956 100.455507 377.826923 99.313730 378.009890 98.179275 378.192857 97.052213 378.375824 95.932616 378.558791 94.820558 378.741758 93.716111 378.924725 92.619332 379.107692 91.530227 379.290659 90.448783 379.473626 89.374991 379.656593 88.308841 379.839560 87.250321 380.022527 86.199423 380.205495 85.156135 380.388462 84.120446 380.571429 83.092348 380.754396 82.071829 380.937363 81.058879 381.120330 80.053487 381.303297 79.055643 381.486264 78.065338 381.669231 77.082560 381.852198 76.107299 382.035165 75.139545 382.218132 74.179287 382.401099 73.226515 382.584066 72.281219 382.767033 71.343389 382.950000 70.413013 383.132967 69.490082 383.315934 68.574585 383.498901 67.666512 383.681868 66.765853 383.864835 65.872596 384.047802 64.986733 384.230769 64.108252 384.413736 63.237143 384.596703 62.373396 384.779670 61.517000 384.962637 60.667945 385.145604 59.826221 385.328571 58.991817 385.511538 58.164723 385.694505 57.344929 385.877473 56.532424 386.060440 55.727197 386.243407 54.929240 386.426374 54.138540 386.609341 53.355088 386.792308 52.578873 386.975275 51.809886 387.158242 51.048115 387.341209 50.293550 387.524176 49.546182 387.707143 48.805999 387.890110 48.072991 388.073077 47.347148 388.256044 46.628460 388.439011 45.916916 388.621978 45.212505 388.804945 44.515218 388.987912 43.825045 389.170879 43.141973 389.353846 42.465995 389.536813 41.797098 389.719780 41.135273 389.902747 40.480509 390.085714 39.832796 390.268681 39.192123 390.451648 38.558481 390.634615 37.931859 390.817582 37.312246 391.000549 36.699632 391.183516 36.094007 391.366484 35.495360 391.549451 34.903681 391.732418 34.318960 391.915385 33.741186 392.098352 33.170350 392.281319 32.606439 392.464286 32.049445 392.647253 31.499357 392.830220 30.956165 393.013187 30.419857 393.196154 29.890424 393.379121 29.367856 393.562088 28.852142 393.745055 28.343271 393.928022 27.841234 394.110989 27.346020 394.293956 26.857618 394.476923 26.376019 394.659890 25.901211 394.842857 25.433185 395.025824 24.971931 395.208791 24.517437 395.391758 24.069693 395.574725 23.628690 395.757692 23.194416 395.940659 22.766862 396.123626 22.346017 396.306593 21.931870 396.489560 21.524412 396.672527 21.123631 396.855495 20.729518 397.038462 20.342063 397.221429 19.961254 397.404396 19.587081 397.587363 19.219535 397.770330 18.858605 397.953297 18.504280 398.136264 18.156550 398.319231 17.815405 398.502198 17.480834 398.685165 17.152827 398.868132 16.831373 399.051099 16.516463 399.234066 16.208086 399.417033 15.906231 399.600000 15.610888 399.782967 15.322047 399.965934 15.039698 400.148901 14.763830 400.331868 14.494432 400.514835 14.231495 400.697802 13.975008 400.880769 13.724960 401.063736 13.481342 401.246703 13.244142 401.429670 13.013351 401.612637 12.788959 401.795604 12.570954 401.978571 12.359326 402.161538 12.154066 402.344505 11.955163 402.527473 11.762606 402.710440 11.576384 402.893407 11.396489 403.076374 11.222909 403.259341 11.055634 403.442308 10.894653 403.625275 10.739957 403.808242 10.591534 403.991209 10.449375 404.174176 10.313469 404.357143 10.183806 404.540110 10.060376 404.723077 9.943167 404.906044 9.832170 405.089011 9.727374 405.271978 9.628770 405.454945 9.536346 405.637912 9.450092 405.820879 9.369998 406.003846 9.296054 406.186813 9.228249 406.369780 9.166573 406.552747 9.111015 406.735714 9.061565 406.918681 9.018213 407.101648 8.980949 407.284615 8.949761 407.467582 8.924640 407.650549 8.905575 407.833516 8.892557 408.016484 8.885573 408.199451 8.884615 408.382418 8.889672 408.565385 8.900734 408.748352 8.917789 408.931319 8.940828 409.114286 8.969841 409.297253 9.004817 409.480220 9.045745 409.663187 9.092616 409.846154 9.145419 410.029121 9.204143 410.212088 9.268778 410.395055 9.339315 410.578022 9.415742 410.760989 9.498049 410.943956 9.586226 411.126923 9.680262 411.309890 9.780148 411.492857 9.885872 411.675824 9.997424 411.858791 10.114795 412.041758 10.237973 412.224725 10.366948 412.407692 10.501711 412.590659 10.642250 412.773626 10.788555 412.956593 10.940616 413.139560 11.098422 413.322527 11.261963 413.505495 11.431230 413.688462 11.606210 413.871429 11.786895 414.054396 11.973273 414.237363 12.165335 414.420330 12.363070 414.603297 12.566467 414.786264 12.775516 414.969231 12.990207 415.152198 13.210530 415.335165 13.436474 415.518132 13.668029 415.701099 13.905184 415.884066 14.147929 416.067033 14.396254 416.250000 14.650148 416.432967 14.909602 416.615934 15.174603 416.798901 15.445144 416.981868 15.721212 417.164835 16.002797 417.347802 16.289890 417.530769 16.582479 417.713736 16.880555 417.896703 17.184107 418.079670 17.493125 418.262637 17.807599 418.445604 18.127517 418.628571 18.452870 418.811538 18.783647 418.994505 19.119838 419.177473 19.461433 419.360440 19.808421 419.543407 20.160791 419.726374 20.518535 419.909341 20.881640 420.092308 21.250097 420.275275 21.623896 420.458242 22.003025 420.641209 22.387476 420.824176 22.777236 421.007143 23.172297 421.190110 23.572647 421.373077 23.978276 421.556044 24.389175 421.739011 24.805332 421.921978 25.226737 422.104945 25.653379 422.287912 26.085250 422.470879 26.522337 422.653846 26.964631 422.836813 27.412121 423.019780 27.864798 423.202747 28.322650 423.385714 28.785667 423.568681 29.253839 423.751648 29.727156 423.934615 30.205607 424.117582 30.689182 424.300549 31.177870 424.483516 31.671662 424.666484 32.170540 424.849451 32.674468 425.032418 33.183399 425.215385 33.697291 425.398352 34.216098 425.581319 34.739778 425.764286 35.268285 425.947253 35.801575 426.130220 36.339605 426.313187 36.882329 426.496154 37.429705 426.679121 37.981687 426.862088 38.538231 427.045055 39.099294 427.228022 39.664831 427.410989 40.234798 427.593956 40.809150 427.776923 41.387844 427.959890 41.970835 428.142857 42.558079 428.325824 43.149532 428.508791 43.745150 428.691758 44.344888 428.874725 44.948702 429.057692 45.556549 429.240659 46.168383 429.423626 46.784162 429.606593 47.403840 429.789560 48.027373 429.972527 48.654717 430.155495 49.285828 430.338462 49.920662 430.521429 50.559175 430.704396 51.201322 430.887363 51.847059 431.070330 52.496342 431.253297 53.149127 431.436264 53.805369 431.619231 54.465025 431.802198 55.128050 431.985165 55.794400 432.168132 56.464031 432.351099 57.136898 432.534066 57.812958 432.717033 58.492166 432.900000 59.174479 433.082967 59.859851 433.265934 60.548239 433.448901 61.239598 433.631868 61.933884 433.814835 62.631054 433.997802 63.331062 434.180769 64.033865 434.363736 64.739419 434.546703 65.447679 434.729670 66.158601 434.912637 66.872141 435.095604 67.588255 435.278571 68.306898 435.461538 69.028027 435.644505 69.751596 435.827473 70.477563 436.010440 71.205882 436.193407 71.936510 436.376374 72.669403 436.559341 73.404515 436.742308 74.141804 436.925275 74.881224 437.108242 75.622732 437.291209 76.366283 437.474176 77.111834 437.657143 77.859340 437.840110 78.608756 438.023077 79.360039 438.206044 80.113144 438.389011 80.868028 438.571978 81.624646 438.754945 82.382953 438.937912 83.142907 439.120879 83.904461 439.303846 84.667573 439.486813 85.432198 439.669780 86.198292 439.852747 86.965811 440.035714 87.734710 440.218681 88.504946 440.401648 89.276473 440.584615 90.049249 440.767582 90.823228 440.950549 91.598367 441.133516 92.374621 441.316484 93.151946 441.499451 93.930298 441.682418 94.709633 441.865385 95.489906 442.048352 96.271074 442.231319 97.053092 442.414286 97.835916 442.597253 98.619502 442.780220 99.403806 442.963187 100.188783 443.146154 100.974389 443.329121 101.760580 443.512088 102.547312 443.695055 103.334540 443.878022 104.122221 444.060989 104.910310 444.243956 105.698764 444.426923 106.487537 444.609890 107.276585 444.792857 108.065866 444.975824 108.855333 445.158791 109.644944 445.341758 110.434653 445.524725 111.224418 445.707692 112.014192 445.890659 112.803933 446.073626 113.593596 446.256593 114.383137 446.439560 115.172512 446.622527 115.961676 446.805495 116.750586 446.988462 117.539197 447.171429 118.327465 447.354396 119.115345 447.537363 119.902794 447.720330 120.689768 447.903297 121.476221 448.086264 122.262111 448.269231 123.047392 448.452198 123.832021 448.635165 124.615954 448.818132 125.399145 449.001099 126.181552 449.184066 126.963130 449.367033 127.743834 449.550000 128.523620 449.732967 129.302445 449.915934 130.080264 450.098901 130.857033 450.281868 131.632707 450.464835 132.407243 450.647802 133.180596 450.830769 133.952722 451.013736 134.723577 451.196703 135.493117 451.379670 136.261297 451.562637 137.028074 451.745604 137.793403 451.928571 138.557239 452.111538 139.319540 452.294505 140.080259 452.477473 140.839355 452.660440 141.596781 452.843407 142.352494 453.026374 143.106451 453.209341 143.858605 453.392308 144.608914 453.575275 145.357334 453.758242 146.103819 453.941209 146.848326 454.124176 147.590810 454.307143 148.331228 454.490110 149.069536 454.673077 149.805688 454.856044 150.539641 455.039011 151.271351 455.221978 152.000773 455.404945 152.727863 455.587912 153.452578 455.770879 154.174872 455.953846 154.894702 456.136813 155.612024 456.319780 156.326792 456.502747 157.038964 456.685714 157.748495 456.868681 158.455340 457.051648 159.159456 457.234615 159.860799 457.417582 160.559323 457.600549 161.254985 457.783516 161.947741 457.966484 162.637547 458.149451 163.324358 458.332418 164.008130 458.515385 164.688819 458.698352 165.366381 458.881319 166.040771 459.064286 166.711946 459.247253 167.379861 459.430220 168.044471 459.613187 168.705734 459.796154 169.363604 459.979121 170.018038 460.162088 170.668991 460.345055 171.316419 460.528022 171.960278 460.710989 172.600523 460.893956 173.237111 461.076923 173.869997 461.259890 174.499137 461.442857 175.124487 461.625824 175.746003 461.808791 176.363640 461.991758 176.977355 462.174725 177.587102 462.357692 178.192838 462.540659 178.794520 462.723626 179.392101 462.906593 179.985539 463.089560 180.574789 463.272527 181.159807 463.455495 181.740549 463.638462 182.316970 463.821429 182.889027 464.004396 183.456675 464.187363 184.019869 464.370330 184.578567 464.553297 185.132723 464.736264 185.682293 464.919231 186.227234 465.102198 186.767500 465.285165 187.303049 465.468132 187.833835 465.651099 188.359814 465.834066 188.880943 466.017033 189.397177 466.200000 189.908471 466.382967 190.414782 466.565934 190.916066 466.748901 191.412278 466.931868 191.903373 467.114835 192.389309 467.297802 192.870041 467.480769 193.345523 467.663736 193.815714 467.846703 194.280567 468.029670 194.740039 468.212637 195.194086 468.395604 195.642663 468.578571 196.085727 468.761538 196.523233 468.944505 196.955136 469.127473 197.381394 469.310440 197.801961 469.493407 198.216793 469.676374 198.625847 469.859341 199.029077 470.042308 199.426440 470.225275 199.817892 470.408242 200.203401 470.591209 200.582987 470.774176 200.956682 470.957143 201.324520 471.140110 201.686531 471.323077 202.042750 471.506044 202.393208 471.689011 202.737938 471.871978 203.076973 472.054945 203.410345 472.237912 203.738086 472.420879 204.060229 472.603846 204.376807 472.786813 204.687853 472.969780 204.993397 473.152747 205.293474 473.335714 205.588116 473.518681 205.877355 473.701648 206.161223 473.884615 206.439754 474.067582 206.712980 474.250549 206.980932 474.433516 207.243645 474.616484 207.501150 474.799451 207.753480 474.982418 208.000667 475.165385 208.242744 475.348352 208.479743 475.531319 208.711698 475.714286 208.938639 475.897253 209.160601 476.080220 209.377615 476.263187 209.589714 476.446154 209.796931 476.629121 209.999298 476.812088 210.196847 476.995055 210.389611 477.178022 210.577623 477.360989 210.760915 477.543956 210.939519 477.726923 211.113469 477.909890 211.282797 478.092857 211.447534 478.275824 211.607714 478.458791 211.763370 478.641758 211.914533 478.824725 212.061236 479.007692 212.203513 479.190659 212.341394 479.373626 212.474913 479.556593 212.604103 479.739560 212.728995 479.922527 212.849623 480.105495 212.966019 480.288462 213.078215 480.471429 213.186244 480.654396 213.290139 480.837363 213.389931 481.020330 213.485654 481.203297 213.577340 481.386264 213.665021 481.569231 213.748731 481.752198 213.828501 481.935165 213.904364 482.118132 213.976353 482.301099 214.044500 482.484066 214.108837 482.667033 214.169398 482.850000 214.226214 483.032967 214.279318 483.215934 214.328743 483.398901 214.374522 483.581868 214.416686 483.764835 214.455268 483.947802 214.490302 484.130769 214.521818 484.313736 214.549850 484.496703 214.574431 484.679670 214.595592 484.862637 214.613367 485.045604 214.627788 485.228571 214.638887 485.411538 214.646697 485.594505 214.651251 485.777473 214.652580 485.960440 214.650718 486.143407 214.645697 486.326374 214.637550 486.509341 214.626309 486.692308 214.612006 486.875275 214.594674 487.058242 214.574346 487.241209 214.551054 487.424176 214.524831 487.607143 214.495708 487.790110 214.463720 487.973077 214.428898 488.156044 214.391274 488.339011 214.350882 488.521978 214.307753 488.704945 214.261921 488.887912 214.213417 489.070879 214.162275 489.253846 214.108526 489.436813 214.052204 489.619780 213.993341 489.802747 213.931969 489.985714 213.868121 490.168681 213.801830 490.351648 213.733127 490.534615 213.662046 490.717582 213.588619 490.900549 213.512879 491.083516 213.434857 491.266484 213.354587 491.449451 213.272101 491.632418 213.187432 491.815385 213.100612 491.998352 213.011673 492.181319 212.920648 492.364286 212.827571 492.547253 212.732472 492.730220 212.635385 492.913187 212.536342 493.096154 212.435376 493.279121 212.332519 493.462088 212.227804 493.645055 212.121263 493.828022 212.012929 494.010989 211.902835 494.193956 211.791012 494.376923 211.677494 494.559890 211.562312 494.742857 211.445500 494.925824 211.327090 495.108791 211.207114 495.291758 211.085605 495.474725 210.962596 495.657692 210.838118 495.840659 210.712205 496.023626 210.584890 496.206593 210.456203 496.389560 210.326179 496.572527 210.194850 496.755495 210.062247 496.938462 209.928404 497.121429 209.793353 497.304396 209.657127 497.487363 209.519759 497.670330 209.381279 497.853297 209.241722 498.036264 209.101120 498.219231 208.959505 498.402198 208.816910 498.585165 208.673367 498.768132 208.528909 498.951099 208.383568 499.134066 208.237378 499.317033 208.090369 499.500000 207.942575 499.682967 207.794029 499.865934 207.644763 500.048901 207.494809 500.231868 207.344200 500.414835 207.192969 500.597802 207.041148 500.780769 206.888769 500.963736 206.735865 501.146703 206.582469 501.329670 206.428613 501.512637 206.274329 501.695604 206.119651 501.878571 205.964610 502.061538 205.809239 502.244505 205.653572 502.427473 205.497639 502.610440 205.341474 502.793407 205.185109 502.976374 205.028577 503.159341 204.871910 503.342308 204.715141 503.525275 204.558303 503.708242 204.401427 503.891209 204.244546 504.074176 204.087694 504.257143 203.930901 504.440110 203.774202 504.623077 203.617628 504.806044 203.461212 504.989011 203.304987 505.171978 203.148984 505.354945 202.993237 505.537912 202.837778 505.720879 202.682640 505.903846 202.527854 506.086813 202.373454 506.269780 202.219473 506.452747 202.065942 506.635714 201.912893 506.818681 201.760361 507.001648 201.608377 507.184615 201.456973 507.367582 201.306183 507.550549 201.156039 507.733516 201.006572 507.916484 200.857817 508.099451 200.709804 508.282418 200.562568 508.465385 200.416140 508.648352 200.270553 508.831319 200.125839 509.014286 199.982031 509.197253 199.839161 509.380220 199.697262 509.563187 199.556367 509.746154 199.416507 509.929121 199.277717 510.112088 199.140027 510.295055 199.003470 510.478022 198.868080 510.660989 198.733888 510.843956 198.600927 511.026923 198.469230 511.209890 198.338829 511.392857 198.209757 511.575824 198.082045 511.758791 197.955728 511.941758 197.830836 512.124725 197.707404 512.307692 197.585462 512.490659 197.465044 512.673626 197.346183 512.856593 197.228910 513.039560 197.113259 513.222527 196.999261 513.405495 196.886950 513.588462 196.776357 513.771429 196.667516 513.954396 196.560459 514.137363 196.455218 514.320330 196.351826 514.503297 196.250316 514.686264 196.150719 514.869231 196.053069 515.052198 195.957398 515.235165 195.863739 515.418132 195.772124 515.601099 195.682585 515.784066 195.595155 515.967033 195.509867 516.150000 195.426745 516.332967 195.345783 516.515934 195.266967 516.698901 195.190283 516.881868 195.115717 517.064835 195.043254 517.247802 194.972880 517.430769 194.904582 517.613736 194.838345 517.796703 194.774155 517.979670 194.711997 518.162637 194.651859 518.345604 194.593726 518.528571 194.537583 518.711538 194.483416 518.894505 194.431212 519.077473 194.380956 519.260440 194.332634 519.443407 194.286233 519.626374 194.241737 519.809341 194.199133 519.992308 194.158406 520.175275 194.119543 520.358242 194.082530 520.541209 194.047352 520.724176 194.013995 520.907143 193.982445 521.090110 193.952688 521.273077 193.924710 521.456044 193.898496 521.639011 193.874034 521.821978 193.851307 522.004945 193.830303 522.187912 193.811008 522.370879 193.793406 522.553846 193.777485 522.736813 193.763229 522.919780 193.750625 523.102747 193.739659 523.285714 193.730316 523.468681 193.722583 523.651648 193.716445 523.834615 193.711889 524.017582 193.708899 524.200549 193.707462 524.383516 193.707564 524.566484 193.709191 524.749451 193.712329 524.932418 193.716963 525.115385 193.723079 525.298352 193.730664 525.481319 193.739703 525.664286 193.750181 525.847253 193.762086 526.030220 193.775403 526.213187 193.790117 526.396154 193.806215 526.579121 193.823682 526.762088 193.842504 526.945055 193.862668 527.128022 193.884159 527.310989 193.906963 527.493956 193.931065 527.676923 193.956453 527.859890 193.983111 528.042857 194.011025 528.225824 194.040182 528.408791 194.070567 528.591758 194.102166 528.774725 194.134966 528.957692 194.168951 529.140659 194.204108 529.323626 194.240422 529.506593 194.277881 529.689560 194.316468 529.872527 194.356171 530.055495 194.396976 530.238462 194.438867 530.421429 194.481831 530.604396 194.525855 530.787363 194.570923 530.970330 194.617021 531.153297 194.664136 531.336264 194.712254 531.519231 194.761359 531.702198 194.811439 531.885165 194.862479 532.068132 194.914465 532.251099 194.967383 532.434066 195.021218 532.617033 195.075957 532.800000 195.131585 532.982967 195.188089 533.165934 195.245454 533.348901 195.303666 533.531868 195.362711 533.714835 195.422575 533.897802 195.483244 534.080769 195.544703 534.263736 195.606939 534.446703 195.669937 534.629670 195.733683 534.812637 195.798164 534.995604 195.863365 535.178571 195.929271 535.361538 195.995870 535.544505 196.063146 535.727473 196.131086 535.910440 196.199675 536.093407 196.268900 536.276374 196.338745 536.459341 196.409198 536.642308 196.480244 536.825275 196.551869 537.008242 196.624058 537.191209 196.696798 537.374176 196.770075 537.557143 196.843874 537.740110 196.918182 537.923077 196.992983 538.106044 197.068265 538.289011 197.144012 538.471978 197.220212 538.654945 197.296849 538.837912 197.373910 539.020879 197.451380 539.203846 197.529245 539.386813 197.607492 539.569780 197.686106 539.752747 197.765073 539.935714 197.844378 540.118681 197.924009 540.301648 198.003950 540.484615 198.084188 540.667582 198.164708 540.850549 198.245496 541.033516 198.326539 541.216484 198.407822 541.399451 198.489330 541.582418 198.571051 541.765385 198.652969 541.948352 198.735071 542.131319 198.817342 542.314286 198.899768 542.497253 198.982336 542.680220 199.065031 542.863187 199.147839 543.046154 199.230746 543.229121 199.313738 543.412088 199.396800 543.595055 199.479919 543.778022 199.563080 543.960989 199.646270 544.143956 199.729474 544.326923 199.812677 544.509890 199.895867 544.692857 199.979029 544.875824 200.062148 545.058791 200.145211 545.241758 200.228204 545.424725 200.311112 545.607692 200.393921 545.790659 200.476617 545.973626 200.559186 546.156593 200.641614 546.339560 200.723887 546.522527 200.805991 546.705495 200.887911 546.888462 200.969634 547.071429 201.051145 547.254396 201.132430 547.437363 201.213475 547.620330 201.294266 547.803297 201.374789 547.986264 201.455030 548.169231 201.534974 548.352198 201.614608 548.535165 201.693917 548.718132 201.772888 548.901099 201.851505 549.084066 201.929756 549.267033 202.007626 549.450000 202.085100 549.632967 202.162165 549.815934 202.238807 549.998901 202.315011 550.181868 202.390763 550.364835 202.466050 550.547802 202.540856 550.730769 202.615169 550.913736 202.688973 551.096703 202.762256 551.279670 202.835001 551.462637 202.907197 551.645604 202.978828 551.828571 203.049880 552.011538 203.120339 552.194505 203.190191 552.377473 203.259422 552.560440 203.328018 552.743407 203.395965 552.926374 203.463248 553.109341 203.529853 553.292308 203.595767 553.475275 203.660976 553.658242 203.725464 553.841209 203.789218 554.024176 203.852224 554.207143 203.914468 554.390110 203.975936 554.573077 204.036613 554.756044 204.096485 554.939011 204.155539 555.121978 204.213760 555.304945 204.271133 555.487912 204.327646 555.670879 204.383284 555.853846 204.438032 556.036813 204.491877 556.219780 204.544804 556.402747 204.596800 556.585714 204.647850 556.768681 204.697940 556.951648 204.747056 557.134615 204.795184 557.317582 204.842310 557.500549 204.888419 557.683516 204.933498 557.866484 204.977532 558.049451 205.020507 558.232418 205.062410 558.415385 205.103226 558.598352 205.142941 558.781319 205.181540 558.964286 205.219010 559.147253 205.255337 559.330220 205.290506 559.513187 205.324504 559.696154 205.357316 559.879121 205.388927 560.062088 205.419325 560.245055 205.448495 560.428022 205.476423 560.610989 205.503094 560.793956 205.528495 560.976923 205.552611 561.159890 205.575428 561.342857 205.596933 561.525824 205.617111 561.708791 205.635947 561.891758 205.653434 562.074725 205.669584 562.257692 205.684415 562.440659 205.697946 562.623626 205.710195 562.806593 205.721180 562.989560 205.730919 563.172527 205.739431 563.355495 205.746733 563.538462 205.752845 563.721429 205.757784 563.904396 205.761569 564.087363 205.764217 564.270330 205.765748 564.453297 205.766179 564.636264 205.765528 564.819231 205.763815 565.002198 205.761057 565.185165 205.757272 565.368132 205.752479 565.551099 205.746695 565.734066 205.739940 565.917033 205.732231 566.100000 205.723587 566.282967 205.714026 566.465934 205.703566 566.648901 205.692225 566.831868 205.680022 567.014835 205.666975 567.197802 205.653102 567.380769 205.638421 567.563736 205.622952 567.746703 205.606711 567.929670 205.589717 568.112637 205.571989 568.295604 205.553544 568.478571 205.534402 568.661538 205.514579 568.844505 205.494096 569.027473 205.472968 569.210440 205.451216 569.393407 205.428857 569.576374 205.405910 569.759341 205.382392 569.942308 205.358322 570.125275 205.333719 570.308242 205.308599 570.491209 205.282983 570.674176 205.256888 570.857143 205.230332 571.040110 205.203333 571.223077 205.175910 571.406044 205.148081 571.589011 205.119865 571.771978 205.091279 571.954945 205.062342 572.137912 205.033071 572.320879 205.003486 572.503846 204.973605 572.686813 204.943445 572.869780 204.913026 573.052747 204.882364 573.235714 204.851479 573.418681 204.820389 573.601648 204.789112 573.784615 204.757667 573.967582 204.726071 574.150549 204.694342 574.333516 204.662500 574.516484 204.630562 574.699451 204.598547 574.882418 204.566473 575.065385 204.534357 575.248352 204.502219 575.431319 204.470077 575.614286 204.437948 575.797253 204.405851 575.980220 204.373805 576.163187 204.341828 576.346154 204.309937 576.529121 204.278151 576.712088 204.246489 576.895055 204.214968 577.078022 204.183607 577.260989 204.152425 577.443956 204.121438 577.626923 204.090667 577.809890 204.060128 577.992857 204.029840 578.175824 203.999822 578.358791 203.970091 578.541758 203.940667 578.724725 203.911566 578.907692 203.882808 579.090659 203.854410 579.273626 203.826392 579.456593 203.798770 579.639560 203.771564 579.822527 203.744792 580.005495 203.718471 580.188462 203.692621 580.371429 203.667259 580.554396 203.642404 580.737363 203.618074 580.920330 203.594287 581.103297 203.571061 581.286264 203.548415 581.469231 203.526368 581.652198 203.504936 581.835165 203.484139 582.018132 203.463994 582.201099 203.444520 582.384066 203.425736 582.567033 203.407659 582.750000 203.390308 582.932967 203.373701 583.115934 203.357856 583.298901 203.342792 583.481868 203.328526 583.664835 203.315077 583.847802 203.302464 584.030769 203.290704 584.213736 203.279815 584.396703 203.269817 584.579670 203.260727 584.762637 203.252564 584.945604 203.245345 585.128571 203.239090 585.311538 203.233815 585.494505 203.229540 585.677473 203.226283 585.860440 203.224062 586.043407 203.222896 586.226374 203.222801 586.409341 203.223798 586.592308 203.225904 586.775275 203.229137 586.958242 203.233515 587.141209 203.239058 587.324176 203.245782 587.507143 203.253707 587.690110 203.262850 587.873077 203.273230 588.056044 203.284865 588.239011 203.297774 588.421978 203.311974 588.604945 203.327484 588.787912 203.344322 588.970879 203.362507 589.153846 203.382056 589.336813 203.402987 589.519780 203.425320 589.702747 203.449073 589.885714 203.474263 590.068681 203.500908 590.251648 203.529028 590.434615 203.558641 590.617582 203.589764 590.800549 203.622415 590.983516 203.656614 591.166484 203.692379 591.349451 203.729727 591.532418 203.768677 591.715385 203.809247 591.898352 203.851455 592.081319 203.895320 592.264286 203.940860 592.447253 203.988093 592.630220 204.037038 592.813187 204.087712 592.996154 204.140134 593.179121 204.194323 593.362088 204.250295 593.545055 204.308071 593.728022 204.367667 593.910989 204.429103 594.093956 204.492396 594.276923 204.557564 594.459890 204.624627 594.642857 204.693602 594.825824 204.764507 595.008791 204.837361 595.191758 204.912182 595.374725 204.988989 595.557692 205.067798 595.740659 205.148630 595.923626 205.231501 596.106593 205.316431 596.289560 205.403437 596.472527 205.492538 596.655495 205.583752 596.838462 205.677097 597.021429 205.772592 597.204396 205.870254 597.387363 205.970102 597.570330 206.072155 597.753297 206.176430 597.936264 206.282946 598.119231 206.391721 598.302198 206.502773 598.485165 206.616121 598.668132 206.731783 598.851099 206.849776 599.034066 206.970120 599.217033 207.092833 599.400000 207.217932 599.582967 207.345436 599.765934 207.475364 599.948901 207.607733 600.131868 207.742562 600.314835 207.879869 600.497802 208.019672 600.680769 208.161990 600.863736 208.306840 601.046703 208.454242 601.229670 208.604213 601.412637 208.756772 601.595604 208.911937 601.778571 209.069725 601.961538 209.230156 602.144505 209.393248 602.327473 209.559018 602.510440 209.727486 602.693407 209.898669 602.876374 210.072585 603.059341 210.249254 603.242308 210.428692 603.425275 210.610919 603.608242 210.795953 603.791209 210.983811 603.974176 211.174512 604.157143 211.368075 604.340110 211.564518 604.523077 211.763858 604.706044 211.966115 604.889011 212.171306 605.071978 212.379450 605.254945 212.590564 605.437912 212.804668 605.620879 213.021779 605.803846 213.241916 605.986813 213.465096 606.169780 213.691339 606.352747 213.920663 606.535714 214.153085 606.718681 214.388624 606.901648 214.627298 607.084615 214.869125 607.267582 215.114125 607.450549 215.362314 607.633516 215.613706 607.816484 215.868294 607.999451 216.126064 608.182418 216.387004 608.365385 216.651101 608.548352 216.918342 608.731319 217.188714 608.914286 217.462204 609.097253 217.738800 609.280220 218.018488 609.463187 218.301257 609.646154 218.587093 609.829121 218.875982 610.012088 219.167913 610.195055 219.462873 610.378022 219.760849 610.560989 220.061827 610.743956 220.365795 610.926923 220.672741 611.109890 220.982651 611.292857 221.295512 611.475824 221.611312 611.658791 221.930038 611.841758 222.251677 612.024725 222.576217 612.207692 222.903644 612.390659 223.233945 612.573626 223.567108 612.756593 223.903120 612.939560 224.241968 613.122527 224.583639 613.305495 224.928120 613.488462 225.275399 613.671429 225.625463 613.854396 225.978299 614.037363 226.333894 614.220330 226.692235 614.403297 227.053309 614.586264 227.417104 614.769231 227.783607 614.952198 228.152804 615.135165 228.524684 615.318132 228.899233 615.501099 229.276438 615.684066 229.656287 615.867033 230.038766 616.050000 230.423863 616.232967 230.811566 616.415934 231.201861 616.598901 231.594735 616.781868 231.990175 616.964835 232.388170 617.147802 232.788705 617.330769 233.191768 617.513736 233.597347 617.696703 234.005428 617.879670 234.415999 618.062637 234.829046 618.245604 235.244557 618.428571 235.662519 618.611538 236.082920 618.794505 236.505746 618.977473 236.930984 619.160440 237.358622 619.343407 237.788648 619.526374 238.221047 619.709341 238.655807 619.892308 239.092916 620.075275 239.532360 620.258242 239.974128 620.441209 240.418205 620.624176 240.864579 620.807143 241.313237 620.990110 241.764167 621.173077 242.217355 621.356044 242.672789 621.539011 243.130456 621.721978 243.590343 621.904945 244.052438 622.087912 244.516726 622.270879 244.983197 622.453846 245.451836 622.636813 245.922631 622.819780 246.395569 623.002747 246.870637 623.185714 247.347823 623.368681 247.827113 623.551648 248.308495 623.734615 248.791956 623.917582 249.277483 624.100549 249.765064 624.283516 250.254684 624.466484 250.746333 624.649451 251.239996 624.832418 251.735661 625.015385 252.233315 625.198352 252.732945 625.381319 253.234539 625.564286 253.738083 625.747253 254.243565 625.930220 254.750972 626.113187 255.260291 626.296154 255.771510 626.479121 256.284614 626.662088 256.799593 626.845055 257.316432 627.028022 257.835119 627.210989 258.355641 627.393956 258.877986 627.576923 259.402139 627.759890 259.928090 627.942857 260.455824 628.125824 260.985329 628.308791 261.516592 628.491758 262.049601 628.674725 262.584342 628.857692 263.120802 629.040659 263.658970 629.223626 264.198831 629.406593 264.740373 629.589560 265.283584 629.772527 265.828450 629.955495 266.374958 630.138462 266.923097 630.321429 267.472852 630.504396 268.024211 630.687363 268.577162 630.870330 269.131691 631.053297 269.687786 631.236264 270.245433 631.419231 270.804621 631.602198 271.365335 631.785165 271.927564 631.968132 272.491294 632.151099 273.056513 632.334066 273.623208 632.517033 274.191366 632.700000 274.760973 632.882967 275.332018 633.065934 275.904488 633.248901 276.478369 633.431868 277.053648 633.614835 277.630314 633.797802 278.208353 633.980769 278.787752 634.163736 279.368499 634.346703 279.950580 634.529670 280.533983 634.712637 281.118695 634.895604 281.704703 635.078571 282.291994 635.261538 282.880556 635.444505 283.470375 635.627473 284.061439 635.810440 284.653736 635.993407 285.247251 636.176374 285.841972 636.359341 286.437887 636.542308 287.034983 636.725275 287.633246 636.908242 288.232665 637.091209 288.833225 637.274176 289.434915 637.457143 290.037721 637.640110 290.641631 637.823077 291.246631 638.006044 291.852710 638.189011 292.459854 638.371978 293.068050 638.554945 293.677285 638.737912 294.287547 638.920879 294.898823 639.103846 295.511100 639.286813 296.124365 639.469780 296.738605 639.652747 297.353808 639.835714 297.969960 640.018681 298.587049 640.201648 299.205062 640.384615 299.823986 640.567582 300.443809 640.750549 301.064517 640.933516 301.686097 641.116484 302.308538 641.299451 302.931825 641.482418 303.555947 641.665385 304.180889 641.848352 304.806641 642.031319 305.433188 642.214286 306.060517 642.397253 306.688617 642.580220 307.317474 642.763187 307.947075 642.946154 308.577407 643.129121 309.208459 643.312088 309.840216 643.495055 310.472666 643.678022 311.105796 643.860989 311.739593 644.043956 312.374045 644.226923 313.009139 644.409890 313.644861 644.592857 314.281200 644.775824 314.918141 644.958791 315.555673 645.141758 316.193782 645.324725 316.832456 645.507692 317.471682 645.690659 318.111446 645.873626 318.751737 646.056593 319.392541 646.239560 320.033846 646.422527 320.675638 646.605495 321.317906 646.788462 321.960635 646.971429 322.603813 647.154396 323.247427 647.337363 323.891465 647.520330 324.535914 647.703297 325.180761 647.886264 325.825992 648.069231 326.471596 648.252198 327.117559 648.435165 327.763868 648.618132 328.410511 648.801099 329.057475 648.984066 329.704747 649.167033 330.352314 649.350000 331.000164 649.532967 331.648282 649.715934 332.296658 649.898901 332.945277 650.081868 333.594128 650.264835 334.243196 650.447802 334.892470 650.630769 335.541936 650.813736 336.191582 650.996703 336.841395 651.179670 337.491362 651.362637 338.141470 651.545604 338.791706 651.728571 339.442058 651.911538 340.092512 652.094505 340.743057 652.277473 341.393678 652.460440 342.044363 652.643407 342.695100 652.826374 343.345875 653.009341 343.996676 653.192308 344.647490 653.192308 434.982787" /></g></g><g class="titles"><text class="title plot_title" x="450.0" y="26">Registros processados: 42828 </text><text class="title plot_title" x="450.0" y="52"> </text><text class="title plot_title" x="450.0" y="78">                    Registros pendentes: 82073 </text></g><g class="plot overlay" transform="translate(214, 98)"><g class="series serie-0 color-0"><g class="dots"><circle class="dot reactive tooltip-trigger" cx="12.8076923077" cy="432.27361597" r="2.5" /><desc class="value">61</desc><desc class="x top">12.8076923077</desc><desc class="y top">432.27361597</desc></g><g class="dots"><circle class="dot reactive tooltip-trigger" cx="58.5494505495" cy="425.700546213" r="2.5" /><desc class="value">209</desc><desc class="x top">58.5494505495</desc><desc class="y top">425.700546213</desc></g><g class="dots"><circle class="dot reactive tooltip-trigger" cx="104.291208791" cy="413.57589727" r="2.5" /><desc class="value">482</desc><desc class="x top">104.291208791</desc><desc class="y top">413.57589727</desc></g><g class="dots"><circle class="dot reactive tooltip-trigger" cx="150.032967033" cy="402.739214699" r="2.5" /><desc class="value">726</desc><desc class="x top">150.032967033</desc><desc class="y top">402.739214699</desc></g><g class="dots"><circle class="dot reactive tooltip-trigger" cx="195.774725275" cy="409.934061324" r="2.5" /><desc class="value">564</desc><desc class="x top">195.774725275</desc><desc class="y top">409.934061324</desc></g><g class="dots"><circle class="dot reactive tooltip-trigger" cx="241.516483516" cy="411.621741397" r="2.5" /><desc class="value">526</desc><desc class="x top">241.516483516</desc><desc class="y top">411.621741397</desc></g><g class="dots"><circle class="dot reactive tooltip-trigger" cx="287.258241758" cy="419.926903859" r="2.5" /><desc class="value">339</desc><desc class="x top">287.258241758</desc><desc class="y top">419.926903859</desc></g><g class="dots"><circle class="dot reactive tooltip-trigger" cx="333.0" cy="420.504268095" r="2.5" /><desc class="value">326</desc><desc class="x top">333.0</desc><desc class="y top">420.504268095</desc></g><g class="dots"><circle class="dot reactive tooltip-trigger" cx="378.741758242" cy="93.7161108701" r="2.5" /><desc class="value">7684</desc><desc class="x left">378.741758242</desc><desc class="y left">93.7161108701</desc></g><g class="dots"><circle class="dot reactive tooltip-trigger" cx="424.483516484" cy="31.6716618835" r="2.5" /><desc class="value">9081</desc><desc class="x left">424.483516484</desc><desc class="y left">31.6716618835</desc></g><g class="dots"><circle class="dot reactive tooltip-trigger" cx="470.225274725" cy="199.817892279" r="2.5" /><desc class="value">5295</desc><desc class="x left">470.225274725</desc><desc class="y left">199.817892279</desc></g><g class="dots"><circle class="dot reactive tooltip-trigger" cx="515.967032967" cy="195.509866831" r="2.5" /><desc class="value">5392</desc><desc class="x left">515.967032967</desc><desc class="y left">195.509866831</desc></g><g class="dots"><circle class="dot reactive tooltip-trigger" cx="561.708791209" cy="205.635947267" r="2.5" /><desc class="value">5164</desc><desc class="x left">561.708791209</desc><desc class="y left">205.635947267</desc></g><g class="dots"><circle class="dot reactive tooltip-trigger" cx="607.450549451" cy="215.362314001" r="2.5" /><desc class="value">4945</desc><desc class="x left">607.450549451</desc><desc class="y left">215.362314001</desc></g><g class="dots"><circle class="dot reactive tooltip-trigger" cx="653.192307692" cy="344.647490093" r="2.5" /><desc class="value">2034</desc><desc class="x left top">653.192307692</desc><desc class="y left top">344.647490093</desc></g></g></g><g class="plot text-overlay" transform="translate(214, 98)"><g class="series serie-0 color-0" /></g><g class="plot tooltip-overlay" transform="translate(214, 98)"><g class="tooltip" style="opacity: 0" transform="translate(0 0)"><a><rect class="tooltip-box" height="0" rx="0" ry="0" width="0" /><text class="text"><tspan class="label" /><tspan class="value" /></text></a></g></g><g class="legends" transform="translate(10, 108)"><g class="legend reactive activate-serie" id="activate-serie-0"><rect class="color-0 reactive" height="12" width="12" x="0.0" y="1.0" /><text x="17.0" y="11.2">hr.bko_apoio_0…</text><title>hr.bko_apoio_0002</title></g></g><g class="legends" transform="translate(890, 108)" /></g></svg>